<?xml version="1.0" encoding="UTF-8" standalone="no"?><!DOCTYPE svg PUBLIC "-//W3C//DTD SVG 1.1//EN" "http://www.w3.org/Graphics/SVG/1.1/DTD/svg11.dtd"><svg width="100%" height="100%" viewBox="0 0 379 322" version="1.1" xmlns="http://www.w3.org/2000/svg" xmlns:xlink="http://www.w3.org/1999/xlink" xml:space="preserve" xmlns:serif="http://www.serif.com/" style="fill-rule:evenodd;clip-rule:evenodd;stroke-linecap:round;stroke-linejoin:round;stroke-miterlimit:1.5;"><rect id="Artboard1" x="0" y="0" width="378.859" height="321.121" style="fill:none;"/><g id="Model"><g id="Grass"><path id="Base" d="M61.463,250.709l29.288,-18.469l171.279,0l57.13,23.059l-255.648,0l-2.049,-4.59Z" style="fill:#00a902;stroke:#505a8c;stroke-width:0.7px;"/><path d="M250.066,240.199l2.043,-3.98l1.95,2.329" style="fill:none;stroke:#505a8c;stroke-width:0.7px;"/><path d="M265.495,249.215l4.257,-5.902" style="fill:none;stroke:#505a8c;stroke-width:0.7px;"/><path d="M265.64,250.816l4.257,-5.902" style="fill:none;stroke:#505a8c;stroke-width:0.7px;"/><path d="M265.64,250.187l4.257,-5.902" style="fill:none;stroke:#505a8c;stroke-width:0.7px;"/><path d="M247.542,236.231l2.23,3.321l2.136,-4.955l2.817,2.996l4.768,-2.996l-0.836,4.099" style="fill:none;stroke:#505a8c;stroke-width:0.7px;"/><path d="M128.638,244.181l-0.542,-2.464l5.031,0.152l5.031,-3.173l2.012,5.074l2.98,-1.243l0.658,3.212l5.07,-1.558l2.283,1.558l-2.361,4.489l4.838,-4.295l3.715,5.302" style="fill:none;stroke:#505a8c;stroke-width:0.7px;"/><path d="M101.935,238.716l3.622,-4.119l2.756,4.955l5.572,-4.955l2.044,4.583l5.665,-3.498" style="fill:none;stroke:#505a8c;stroke-width:0.7px;"/><path d="M94.496,253.408l-2.941,-5.495l5.108,0.503l3.213,-4.646l2.863,3.717l5.302,-4.682l1.084,3.839l6.579,-3.839l0.89,2.615l6.385,-4.544l-1.238,4.544" style="fill:none;stroke:#505a8c;stroke-width:0.7px;"/><path d="M251.109,245.822l4.818,-2.052l5.48,3.703" style="fill:none;stroke:#505a8c;stroke-width:0.7px;"/><path d="M222.55,241.717l6.223,-4.829l1.517,3.158l4.829,-4.675l-0.185,4.675l6.625,-5.449" style="fill:none;stroke:#505a8c;stroke-width:0.7px;"/><path d="M206.96,251.172l4.613,-4.528l8.824,0.843" style="fill:none;stroke:#505a8c;stroke-width:0.7px;"/><path d="M249.32,247.219l6.833,-2.112l3.749,3.073" style="fill:none;stroke:#505a8c;stroke-width:0.7px;"/><path d="M235.532,247.487l-2.081,-3.944l5.528,2.341l2.602,-5.008l0.976,5.463l3.967,-5.463" style="fill:none;stroke:#505a8c;stroke-width:0.7px;"/><path d="M236.079,248.18l-1.934,-3.667l5.139,2.177l2.419,-4.656l0.907,5.08l3.689,-5.08" style="fill:none;stroke:#505a8c;stroke-width:0.7px;"/><path d="M233.43,254.454l2.5,-4l-16.5,4l-5,-6.5l6,1.5l2.5,-2.5" style="fill:none;stroke:#505a8c;stroke-width:0.7px;"/><path d="M162.43,252.954l5.5,-2.5l1,3" style="fill:none;stroke:#505a8c;stroke-width:0.7px;"/><path d="M136.93,247.954l5,-4l1,4l6.5,-2.5l-3.5,5.5l5.5,2l3,-4l3,4" style="fill:none;stroke:#505a8c;stroke-width:0.7px;"/><path d="M129.43,244.745l1,-2.291l2,1.5l5,-3.5l1.5,3" style="fill:none;stroke:#505a8c;stroke-width:0.7px;"/><path d="M103.43,253.954l1,-1.5l2,1.5l4,-3.5l1.5,3.5l9.5,-4.5l-0.5,3.5" style="fill:none;stroke:#505a8c;stroke-width:0.7px;"/><path d="M129.93,235.954l2.5,-3l1.5,4.5l2.5,-3.5l2.5,3.5" style="fill:none;stroke:#505a8c;stroke-width:0.7px;"/><path d="M172.43,253.454l2.5,-3l3,3l4.5,-2.5l4,2l6.5,-3l7.5,3.5l2,-3l1,3" style="fill:none;stroke:#505a8c;stroke-width:0.7px;"/><path d="M227.93,242.954l4,5l-5.5,0l1.5,-5Z" style="fill:#54d95b;stroke:#505a8c;stroke-width:0.7px;"/><path d="M261.007,236.219l4.037,4.659l-5.551,0l1.514,-4.659Z" style="fill:#54d95b;stroke:#505a8c;stroke-width:0.7px;"/><path d="M291.921,247.236l7.01,3.643l-8.425,-1.09l1.415,-2.553Z" style="fill:#54d95b;stroke:#505a8c;stroke-width:0.7px;"/><path d="M278.874,246.717l-4.966,4.077l5.503,0.92l-0.537,-4.997Z" style="fill:#1b6d15;stroke:#505a8c;stroke-width:0.7px;"/><path d="M211.675,246.644l3.413,5.705l-5.881,-3.096l2.468,-2.609Z" style="fill:#1b6d15;stroke:#505a8c;stroke-width:0.7px;"/><path d="M96.43,254.454l-4,-6l6.5,3.5l1,-7l3,4.5l5,-5l-1,5l8.5,-5.5l-1,4.5l6,-4l-0.5,3.5l6.5,-4.5l1.5,7.5" style="fill:none;stroke:#505a8c;stroke-width:0.7px;"/><path d="M102.43,239.454l3,-3.5l2.5,5.5l5.5,-5l2,5l5,-3.5l0.47,3l-1.992,2" style="fill:none;stroke:#505a8c;stroke-width:0.7px;"/><path d="M223.865,242.034l4.716,-3.567l1.27,2.902" style="fill:none;stroke:#505a8c;stroke-width:0.7px;"/><path d="M277.55,240.878l-0.89,5.839l3.676,-2.432l0.155,5.902l6.734,-4.631" style="fill:none;stroke:#505a8c;stroke-width:0.7px;"/><path d="M171.388,253.454l3.434,-3.5l3.338,2.534l4.245,-2.301l3.963,2.085l6.44,-3.012l7.398,3.177l2.283,-2.483l1.548,3.5" style="fill:none;stroke:#505a8c;stroke-width:0.7px;"/></g><g id="Crown"><g id="Velvet"><g id="Left"><path d="M153.496,58.519c4.012,-1.038 8.695,-1.892 13.673,-1.065c2.973,-2.946 10.437,-2.102 14.48,-0.5l0,11l3.781,9c-23.772,16.746 -40.362,-5.295 -31.934,-18.435Z" style="fill:#db0149;stroke:#505a8c;stroke-width:0.7px;"/><path d="M169.93,60.954c2.79,-0.268 4.923,0.448 6.5,2" style="fill:none;stroke:#505a8c;stroke-width:0.7px;"/><path d="M167.43,57.454c1.96,2.507 3.309,4.752 3.5,6.5" style="fill:none;stroke:#505a8c;stroke-width:0.7px;"/></g><g id="Right"><path d="M226.706,58.519c-7.29,-5.042 -8.298,-2.892 -13.276,-2.065c-2.974,-2.946 -11.957,-1.102 -16,0.5l0,11l-2.657,9c23.771,16.746 40.361,-5.295 31.933,-18.435Z" style="fill:#db0149;stroke:#505a8c;stroke-width:0.7px;"/><path d="M204.43,57.954c-2.493,2.135 -0.929,2.804 0.199,3.826" style="fill:none;stroke:#505a8c;stroke-width:0.7px;"/><path d="M213.27,56.454c-2.534,1.999 -5.15,4.252 -5.34,6" style="fill:none;stroke:#505a8c;stroke-width:0.7px;"/></g></g><path id="Bottom-Frame" serif:id="Bottom Frame" d="M148.93,78.454l5,-2c6.056,5.345 12.238,6.314 18.5,4.5c7.007,0.05 12.293,-1.794 17.25,-4c5.008,2.881 10.719,4.074 16.75,4.5c9.796,1.013 16.088,-0.196 17.5,-4.5l5,1.5c-4.263,3.167 -6.169,5.765 -4.5,7.5c-23.397,-5.707 -46.9,-5.541 -70.5,0c1.3,-2.28 -0.574,-4.729 -5,-7.5Z" style="fill:#ffd400;stroke:#505a8c;stroke-width:0.7px;"/><g><path id="Bottom-Lid" serif:id="Bottom Lid" d="M157.703,97.707c-2.65,-1.336 -3.609,-4.001 -2.915,-7.965c-13.588,-10.291 84.86,-11.098 67.988,0c0.941,3.754 0.006,6.288 -2.722,7.658c-20.784,-4.008 -41.567,-3.897 -62.351,0.307Z" style="fill:url(#_Radial1);stroke:#505a8c;stroke-width:0.7px;"/><path id="Bottom-Lip" serif:id="Bottom Lip" d="M154.788,89.742c22.663,-5.645 45.325,-5.611 67.988,-0.029" style="fill:url(#_Radial2);stroke:#505a8c;stroke-width:0.7px;"/></g><g id="Fur"><path id="Base1" serif:id="Base" d="M157.93,109.454c-0.705,-1.039 -1.947,-1.35 -3,-4c-1.082,-2.723 1.773,-1.374 -0.058,-4.389c0.118,-1.938 0.786,-2.217 1.808,-3.148c1.887,-0.392 3.863,-0.138 5.75,-0.463c2.864,-0.493 5.64,-1.521 8.504,-1.859c4.021,0.435 7.633,-0.763 11.45,-0.937c0.556,0.752 7.492,-0.21 11.238,-0.116c3.976,0.671 4.815,0.177 7.222,0.348c2.931,0.208 5.045,1.281 8.793,0.869c3.717,0.471 6.684,1.482 11.149,1.808c1.054,1.266 0.496,2.182 2.144,2.887c0.962,2.43 -0.779,3.394 0,5c-1.156,0.849 -1.545,1.72 -2.344,2.831c-1.077,-0.32 -1.676,-1.846 -3.233,-0.908c-2.392,-0.259 -3.79,-1.496 -5.923,-1.923c-2.285,-0.457 -5.046,-0.396 -7.333,-0.699c-3.043,-1.212 -6.088,-0.668 -9.135,-0.802c-2.476,0.306 -5.952,-1.131 -9.11,-0.006c-2.401,-0.417 -4.804,0.283 -7.208,0.545c-2.682,-0.101 -4.6,0.572 -6.902,0.967c-2.577,0.441 -4.733,1.376 -7.312,1.995c-2.186,0.525 -4.313,1.35 -6.5,2Z" style="fill:#d7d7d7;fill-opacity:0.51;stroke:#505a8c;stroke-width:0.7px;"/><g id="Interior"><path d="M157.93,104.954c0,0 0.62,-0.875 1,-1.5c1.6,-2.631 2.051,0.762 2.5,-0.5c1.404,-3.948 0.888,-0.098 2.5,-2c1.859,-2.194 0.628,1.671 3.5,-0.5" style="fill:none;stroke:#505a8c;stroke-width:0.7px;"/><path d="M174.834,101.276c1.579,-2.353 1.161,1.028 1.713,-0.145c1.728,-3.668 0.592,1.055 2.026,-1.613c1.19,-2.212 0.724,1.726 1.857,-0.564" style="fill:none;stroke:#505a8c;stroke-width:0.7px;"/><path d="M193.43,99.454c-0.73,-2.982 -1.144,1.043 -1.829,-0.058c-2.052,-3.297 -1.281,2.154 -2.465,-0.79c-0.938,-2.331 -1.225,0.409 -1.706,1.11" style="fill:none;stroke:#505a8c;stroke-width:0.7px;"/><path d="M206.705,98.954c-2.665,-2.513 -2.091,2.299 -3.275,1c-1.693,-1.856 -1.755,-0.701 -2.237,0" style="fill:none;stroke:#505a8c;stroke-width:0.7px;"/><path d="M217.43,102.454c-1.768,-4.248 -1.316,0.299 -2.5,-1c-1.693,-1.856 -2.275,-0.7 -2.756,0.001" style="fill:none;stroke:#505a8c;stroke-width:0.7px;"/></g></g><g id="Frame"><path d="M181.93,62.28l0,-8.201c-2.769,-0.004 -6.117,-0.168 -8.423,-2.125c-8.596,-7.293 -26.697,-0.857 -16.64,13.437c-1.293,0.083 -3.508,0.819 -6.731,2.269c-0.764,-0.883 -3.484,-1.361 -4.706,-9.206c-3.382,-21.697 35.217,-16.913 34,-12.5l2,-9.634l2.887,-4.891l0,-2.192l-5.228,2.867l0,-15.179l5.191,4.696l-5.022,-7.9l20.616,0l-5.023,7.9l5.191,-4.696l0,15.179l-5.228,-2.867l0,2.192l3.116,4.891l1.772,9.634c-1.218,-4.413 37.381,-9.197 34,12.5c-1.223,7.845 -3.943,8.323 -4.706,9.206c-3.223,-1.45 -5.439,-2.186 -6.732,-2.269c10.057,-14.294 -8.044,-20.73 -16.639,-13.437c-2.306,1.957 -5.655,2.121 -8.423,2.125l0,8.201" style="fill:url(#_Linear3);stroke:#505a8c;stroke-width:0.7px;"/></g><g id="Crescents"><path d="M158.43,65.55c-1.822,-0.59 -5.066,0.462 -10.5,3.249c-0.028,2.47 1.543,5.107 4.5,7.891c1.426,-3.345 2.609,-7.167 6,-11.14Z" style="fill:#ffd400;stroke:#505a8c;stroke-width:0.7px;"/><path d="M219.974,65.55c1.821,-0.59 5.066,0.462 10.5,3.249c0.027,2.47 -1.543,5.107 -4.5,7.891c-1.427,-3.345 -2.61,-7.167 -6,-11.14Z" style="fill:#ffd400;stroke:#505a8c;stroke-width:0.7px;"/><path d="M159.332,66.762c-1.773,0.724 -4.046,4.058 -6.402,9.692c0.865,1.827 4.945,4.279 9,4.5c-1.067,-3.476 -2.627,-8.969 -2.598,-14.192Z" style="fill:#ffd400;stroke:#505a8c;stroke-width:0.7px;"/><path d="M219.027,66.762c1.773,0.724 4.046,4.058 6.403,9.692c-0.866,1.827 -4.946,4.279 -9,4.5c1.066,-3.476 2.626,-8.969 2.597,-14.192Z" style="fill:#ffd400;stroke:#505a8c;stroke-width:0.7px;"/></g><g id="Flowers"><path d="M176.207,78.836c-2.767,-0.9 -5.395,-0.485 -7.846,1.618c2.925,-7.233 -6.148,-8.302 -3.941,-3.277c-9.111,-1.61 0.658,-12.761 6.068,-1.252c-1.101,-5.498 -6.891,-5.461 -2.04,-14.876c8.182,6.727 2.85,8.983 4.013,14.469c0.415,-12.71 13.799,-6.335 6.069,-1.252c0.038,-5.487 -7.871,-0.915 -2.323,4.57Z" style="fill:url(#_Linear4);stroke:#505a8c;stroke-width:0.7px;"/><path d="M203.152,78.836c2.767,-0.9 5.395,-0.485 7.846,1.618c-2.925,-7.233 6.148,-8.302 3.942,-3.277c9.11,-1.61 -0.659,-12.761 -6.069,-1.252c1.102,-5.498 6.892,-5.461 2.04,-14.876c-8.182,6.727 -2.849,8.983 -4.013,14.469c-0.415,-12.71 -13.799,-6.335 -6.069,-1.252c-0.038,-5.487 7.871,-0.915 2.323,4.57Z" style="fill:url(#_Linear5);stroke:#505a8c;stroke-width:0.7px;"/></g><path id="Lower-Star" serif:id="Lower Star" d="M198.43,62.454l-17.5,0l4,5.5l-4,-3.5l0,14.5l5.5,-4.5c-2.737,4.637 -6.01,6.815 -10.263,4.5c-2.954,-0.63 -5.668,-0.398 -7.737,1.5c-6.752,3.454 -13.855,-3.467 -15.146,-1c-1.005,4.264 12.305,6.609 19.646,1.5c7.428,3.089 12.337,0.753 16.75,-4.5c4.413,5.253 9.322,7.589 16.75,4.5c7.34,5.109 20.651,2.764 19.645,-1.5c-1.291,-2.467 -8.394,4.454 -15.145,1c-2.069,-1.898 -4.784,-2.13 -7.737,-1.5c-4.254,2.315 -7.527,0.137 -10.263,-4.5l5.5,4.5l0,-14.5l-4,3.5l4,-5.5Z" style="fill:url(#_Linear6);stroke:#505a8c;stroke-width:0.7px;"/><g id="Grenade"><g><circle id="Grenade1" serif:id="Grenade" cx="189.566" cy="40.454" r="9.887" style="fill:url(#_Linear7);stroke:#505a8c;stroke-width:0.7px;"/><path d="M193.102,30.8c-2.404,-1.066 -4.758,-1.046 -7.073,0l0,19.238c2.358,1.057 4.715,1.043 7.073,0l0,-19.238Z" style="fill:url(#_Linear8);stroke:#505a8c;stroke-width:0.7px;"/><path d="M199.196,44.013c1.068,-2.403 1.048,-4.757 0,-7.072l-19.266,0c-1.058,2.357 -1.045,4.715 0,7.072l19.266,0Z" style="fill:url(#_Linear9);stroke:#505a8c;stroke-width:0.7px;"/></g><g id="Pearl-Ring" serif:id="Pearl Ring"><circle cx="180.422" cy="40.399" r="1.281" style="fill:#ececec;stroke:#505a8c;stroke-width:0.72px;"/><circle cx="182.984" cy="40.399" r="1.281" style="fill:#ececec;stroke:#505a8c;stroke-width:0.72px;"/><circle cx="185.546" cy="40.399" r="1.281" style="fill:#ececec;stroke:#505a8c;stroke-width:0.72px;"/><circle cx="188.259" cy="40.399" r="1.281" style="fill:#ececec;stroke:#505a8c;stroke-width:0.72px;"/><circle cx="190.872" cy="40.399" r="1.281" style="fill:#ececec;stroke:#505a8c;stroke-width:0.72px;"/><circle cx="193.434" cy="40.399" r="1.281" style="fill:#ececec;stroke:#505a8c;stroke-width:0.72px;"/><circle cx="195.996" cy="40.399" r="1.281" style="fill:#ececec;stroke:#505a8c;stroke-width:0.72px;"/><circle cx="198.709" cy="40.399" r="1.281" style="fill:#ececec;stroke:#505a8c;stroke-width:0.72px;"/></g><ellipse cx="189.566" cy="34.487" rx="2.697" ry="1.716" style="fill:#d23131;stroke:#505a8c;stroke-width:0.72px;"/></g><g id="Pearls"><g id="Pearls-Right" serif:id="Pearls Right"><circle cx="147.098" cy="65.463" r="3.465" style="fill:#f2f2f2;stroke:#fdf8fd;stroke-width:0.72px;"/><circle cx="146.59" cy="53.831" r="3.465" style="fill:#f2f2f2;stroke:#fdf8fd;stroke-width:0.72px;"/><circle cx="149.13" cy="47.533" r="3.465" style="fill:#f2f2f2;stroke:#fdf8fd;stroke-width:0.72px;"/><circle cx="154.209" cy="43.114" r="3.465" style="fill:#f2f2f2;stroke:#fdf8fd;stroke-width:0.72px;"/><circle cx="160.711" cy="41.539" r="3.465" style="fill:#f2f2f2;stroke:#fdf8fd;stroke-width:0.72px;"/><circle cx="167.212" cy="42.454" r="3.465" style="fill:#f2f2f2;stroke:#fdf8fd;stroke-width:0.72px;"/><circle cx="172.698" cy="44.384" r="3.465" style="fill:#f2f2f2;stroke:#fdf8fd;stroke-width:0.72px;"/><circle cx="178.184" cy="46.568" r="3.465" style="fill:#f2f2f2;stroke:#fdf8fd;stroke-width:0.72px;"/><circle cx="146.133" cy="59.723" r="3.465" style="fill:#f2f2f2;stroke:#fdf8fd;stroke-width:0.72px;"/><circle cx="151.232" cy="75.641" r="3.465" style="fill:#f2f2f2;stroke:#fdf8fd;stroke-width:0.72px;"/></g><g id="Pearls-Left" serif:id="Pearls Left"><circle cx="231.392" cy="65.463" r="3.465" style="fill:#f2f2f2;stroke:#fdf8fd;stroke-width:0.72px;"/><circle cx="231.899" cy="53.831" r="3.465" style="fill:#f2f2f2;stroke:#fdf8fd;stroke-width:0.72px;"/><circle cx="229.36" cy="47.533" r="3.465" style="fill:#f2f2f2;stroke:#fdf8fd;stroke-width:0.72px;"/><circle cx="224.28" cy="43.114" r="3.465" style="fill:#f2f2f2;stroke:#fdf8fd;stroke-width:0.72px;"/><circle cx="217.779" cy="41.539" r="3.465" style="fill:#f2f2f2;stroke:#fdf8fd;stroke-width:0.72px;"/><circle cx="211.277" cy="42.454" r="3.465" style="fill:#f2f2f2;stroke:#fdf8fd;stroke-width:0.72px;"/><circle cx="205.792" cy="44.384" r="3.465" style="fill:#f2f2f2;stroke:#fdf8fd;stroke-width:0.72px;"/><circle cx="200.306" cy="46.568" r="3.465" style="fill:#f2f2f2;stroke:#fdf8fd;stroke-width:0.72px;"/><circle cx="232.357" cy="59.723" r="3.465" style="fill:#f2f2f2;stroke:#fdf8fd;stroke-width:0.72px;"/><circle cx="226.895" cy="75.419" r="3.465" style="fill:#f2f2f2;stroke:#fdf8fd;stroke-width:0.72px;"/></g></g><g id="Jewels"><g id="Pearls-Center" serif:id="Pearls Center"><circle cx="189.68" cy="70.954" r="3.465" style="fill:#ececec;"/><circle cx="189.566" cy="60.28" r="1.497" style="fill:#ececec;"/><circle cx="189.566" cy="57.763" r="1.497" style="fill:#ececec;"/><circle cx="189.566" cy="55.223" r="1.497" style="fill:#ececec;"/><circle cx="189.566" cy="52.593" r="1.497" style="fill:#ececec;"/></g><path d="M158.935,89.919c2.558,-0.252 4.781,1.023 4.961,2.846c0.18,1.823 -1.751,3.508 -4.309,3.76c-2.559,0.253 -4.782,-1.022 -4.961,-2.845c-0.18,-1.823 1.751,-3.508 4.309,-3.761Z" style="fill:#dc1d04;"/><path d="M172.962,87.913c2.329,-0.184 4.328,1.014 4.459,2.674c0.131,1.661 -1.654,3.158 -3.984,3.342c-2.33,0.185 -4.328,-1.014 -4.459,-2.674c-0.131,-1.66 1.654,-3.158 3.984,-3.342Z" style="fill:url(#_Radial10);"/><path d="M218.756,89.919c-2.559,-0.252 -4.782,1.023 -4.962,2.846c-0.179,1.823 1.751,3.508 4.31,3.76c2.558,0.253 4.781,-1.022 4.961,-2.845c0.18,-1.823 -1.751,-3.508 -4.309,-3.761Z" style="fill:url(#_Radial11);"/><path d="M204.719,87.913c-2.33,-0.184 -4.328,1.014 -4.459,2.674c-0.132,1.661 1.653,3.158 3.983,3.342c2.33,0.185 4.328,-1.014 4.459,-2.674c0.132,-1.66 -1.653,-3.158 -3.983,-3.342Z" style="fill:url(#_Radial12);"/><path d="M189.237,86.725c3.181,0.04 5.746,1.425 5.725,3.09c-0.021,1.665 -2.621,2.985 -5.801,2.944c-3.181,-0.04 -5.746,-1.425 -5.725,-3.09c0.021,-1.666 2.621,-2.985 5.801,-2.944Z" style="fill:url(#_Radial13);"/><circle cx="189.566" cy="24.634" r="3.465" style="fill:#ececec;"/></g></g><g id="Gun"><path id="Rear-Wheel" serif:id="Rear Wheel" d="M178.997,135.822c30.941,0 56.061,25.119 56.061,56.06c0,30.941 -25.12,56.061 -56.061,56.061c-30.94,0 -56.06,-25.12 -56.06,-56.061c0,-30.941 25.12,-56.06 56.06,-56.06Zm0,12.333c24.134,0 43.728,19.593 43.728,43.727c0,24.134 -19.594,43.728 -43.728,43.728c-24.133,0 -43.727,-19.594 -43.727,-43.728c0,-24.134 19.594,-43.727 43.727,-43.727Z" style="fill:url(#_Linear14);"/><clipPath id="_clip15"><path d="M178.997,135.822c30.941,0 56.061,25.119 56.061,56.06c0,30.941 -25.12,56.061 -56.061,56.061c-30.94,0 -56.06,-25.12 -56.06,-56.061c0,-30.941 25.12,-56.06 56.06,-56.06Zm0,12.333c24.134,0 43.728,19.593 43.728,43.727c0,24.134 -19.594,43.728 -43.728,43.728c-24.133,0 -43.727,-19.594 -43.727,-43.728c0,-24.134 19.594,-43.727 43.727,-43.727Z"/></clipPath><g clip-path="url(#_clip15)"><circle cx="178.734" cy="191.619" r="52.951" style="fill:none;stroke:#d88d39;stroke-width:0.7px;"/></g><path d="M178.997,135.822c30.941,0 56.061,25.119 56.061,56.06c0,30.941 -25.12,56.061 -56.061,56.061c-30.94,0 -56.06,-25.12 -56.06,-56.061c0,-30.941 25.12,-56.06 56.06,-56.06Zm0,12.333c24.134,0 43.728,19.593 43.728,43.727c0,24.134 -19.594,43.728 -43.728,43.728c-24.133,0 -43.727,-19.594 -43.727,-43.728c0,-24.134 19.594,-43.727 43.727,-43.727Z" style="fill:none;stroke:#d88d39;stroke-width:0.7px;"/><path id="Grips" d="M236.618,222.09c3.793,3.953 9.11,4.382 14.871,1.816c0.942,9.136 6.582,11.328 15.764,8.288c1.3,8.649 6.439,9.826 14.503,5.314l-4.677,-3.669c-4.001,3.041 -6.178,0.562 -5.572,-3.62l-4.074,-3.25c-7.448,3.262 -11.225,1.781 -9.818,-6.396l-5.495,-3.963c-5.13,6.647 -15.584,4.87 -9.639,-6.666l-5.863,12.146Z" style="fill:url(#_Linear16);stroke:#d88d39;stroke-width:0.7px;"/><path id="Chassis" d="M220.818,175.655c-0.007,0 15.308,13.637 16.429,13.623c4.487,-0.06 16.987,-0.181 21.659,-0.21c0.04,-1.362 -0.024,-0.676 -0.056,-2.34c-1.858,0.002 -2.383,0.007 -2.383,-0.272c0,-0.806 1.042,-4.162 4.427,-4.162c2.992,0 4.958,3.42 3.828,4.25l-1.53,0.066l0,2.52c1.485,0.012 4.837,0.047 5.906,0.281c1.778,0.389 1.373,1.696 1.34,2.36c-0.056,1.108 -1.323,1.608 -6.179,1.725l41.415,37.666l20.948,0l0,4.98c-9.063,2.863 -10.571,13.503 -9.806,16.689l-12.965,0l-22.411,-15.931c-23.662,-16.706 -25.35,-17.916 -47.067,-32.481c-9.879,0 -12.607,0.036 -19.154,0.04c-0.337,0 -24.599,-14.285 -31.31,-17.983c-0.008,-3.6 0.011,-5.734 0.011,-10.716l36.898,-0.105Z" style="fill:url(#_Linear17);"/><clipPath id="_clip18"><path id="Chassis1" serif:id="Chassis" d="M220.818,175.655c-0.007,0 15.308,13.637 16.429,13.623c4.487,-0.06 16.987,-0.181 21.659,-0.21c0.04,-1.362 -0.024,-0.676 -0.056,-2.34c-1.858,0.002 -2.383,0.007 -2.383,-0.272c0,-0.806 1.042,-4.162 4.427,-4.162c2.992,0 4.958,3.42 3.828,4.25l-1.53,0.066l0,2.52c1.485,0.012 4.837,0.047 5.906,0.281c1.778,0.389 1.373,1.696 1.34,2.36c-0.056,1.108 -1.323,1.608 -6.179,1.725l41.415,37.666l20.948,0l0,4.98c-9.063,2.863 -10.571,13.503 -9.806,16.689l-12.965,0l-22.411,-15.931c-23.662,-16.706 -25.35,-17.916 -47.067,-32.481c-9.879,0 -12.607,0.036 -19.154,0.04c-0.337,0 -24.599,-14.285 -31.31,-17.983c-0.008,-3.6 0.011,-5.734 0.011,-10.716l36.898,-0.105Z"/></clipPath><g clip-path="url(#_clip18)"><g id="Interior1" serif:id="Interior"><path d="M259.374,193.495l5.063,-0.007" style="fill:none;stroke:#cc9b39;stroke-width:0.7px;"/><path d="M242.21,210.121l25.769,17.581l13.689,9.37" style="fill:none;stroke:#cc9b39;stroke-width:0.7px;"/><path d="M243.373,206.589l60.541,41.591l12.902,0" style="fill:none;stroke:#cc9b39;stroke-width:0.7px;"/><path d="M210.494,201.689l19.688,0" style="fill:none;stroke:#cc9b39;stroke-width:0.7px;"/><path d="M245.278,193.54l14.129,-0.042l46.923,43.28l19.27,0" style="fill:none;stroke:#cc9b39;stroke-width:0.7px;"/><path d="M217.992,178.556l12.19,11.998" style="fill:none;stroke:#cc9b39;stroke-width:0.7px;"/></g></g><path id="Chassis2" serif:id="Chassis" d="M220.818,175.655c-0.007,0 15.308,13.637 16.429,13.623c4.487,-0.06 16.987,-0.181 21.659,-0.21c0.04,-1.362 -0.024,-0.676 -0.056,-2.34c-1.858,0.002 -2.383,0.007 -2.383,-0.272c0,-0.806 1.042,-4.162 4.427,-4.162c2.992,0 4.958,3.42 3.828,4.25l-1.53,0.066l0,2.52c1.485,0.012 4.837,0.047 5.906,0.281c1.778,0.389 1.373,1.696 1.34,2.36c-0.056,1.108 -1.323,1.608 -6.179,1.725l41.415,37.666l20.948,0l0,4.98c-9.063,2.863 -10.571,13.503 -9.806,16.689l-12.965,0l-22.411,-15.931c-23.662,-16.706 -25.35,-17.916 -47.067,-32.481c-9.879,0 -12.607,0.036 -19.154,0.04c-0.337,0 -24.599,-14.285 -31.31,-17.983c-0.008,-3.6 0.011,-5.734 0.011,-10.716l36.898,-0.105Z" style="fill:none;stroke:#d88d39;stroke-width:0.7px;"/><g id="Rivets"><circle id="Rivet" cx="264.34" cy="201.689" r="1.643" style="fill:#f4e16e;stroke:#e5b452;stroke-width:0.5px;"/><circle id="Rivet1" serif:id="Rivet" cx="270.307" cy="206.928" r="1.643" style="fill:#f4e16e;stroke:#e5b452;stroke-width:0.5px;"/><circle id="Rivet2" serif:id="Rivet" cx="274.818" cy="211.196" r="1.643" style="fill:#f4e16e;stroke:#e5b452;stroke-width:0.5px;"/><circle id="Rivet3" serif:id="Rivet" cx="258.255" cy="196.175" r="1.643" style="fill:#f4e16e;stroke:#e5b452;stroke-width:0.5px;"/><circle id="Rivet4" serif:id="Rivet" cx="250.605" cy="196.175" r="1.643" style="fill:#f4e16e;stroke:#e5b452;stroke-width:0.5px;"/><circle id="Rivet5" serif:id="Rivet" cx="280.833" cy="216.678" r="1.643" style="fill:#f4e16e;stroke:#e5b452;stroke-width:0.5px;"/><circle id="Rivet6" serif:id="Rivet" cx="287.624" cy="222.887" r="1.643" style="fill:#f4e16e;stroke:#e5b452;stroke-width:0.5px;"/><circle id="Rivet7" serif:id="Rivet" cx="294.221" cy="228.989" r="1.643" style="fill:#f4e16e;stroke:#e5b452;stroke-width:0.5px;"/><circle id="Rivet8" serif:id="Rivet" cx="300.754" cy="235.004" r="1.643" style="fill:#f4e16e;stroke:#e5b452;stroke-width:0.5px;"/><circle id="Rivet9" serif:id="Rivet" cx="306.721" cy="239.031" r="1.643" style="fill:#f4e16e;stroke:#e5b452;stroke-width:0.5px;"/><circle id="Rivet10" serif:id="Rivet" cx="313.172" cy="239.031" r="1.643" style="fill:#f4e16e;stroke:#e5b452;stroke-width:0.5px;"/><circle id="Rivet11" serif:id="Rivet" cx="319.042" cy="239.031" r="1.643" style="fill:#f4e16e;stroke:#e5b452;stroke-width:0.5px;"/><circle id="Rivet12" serif:id="Rivet" cx="304.635" cy="245.919" r="1.643" style="fill:#f4e16e;stroke:#e5b452;stroke-width:0.5px;"/><circle id="Rivet13" serif:id="Rivet" cx="298.038" cy="241.262" r="1.643" style="fill:#f4e16e;stroke:#e5b452;stroke-width:0.5px;"/><circle id="Rivet14" serif:id="Rivet" cx="290.955" cy="236.217" r="1.643" style="fill:#f4e16e;stroke:#e5b452;stroke-width:0.5px;"/><circle id="Rivet15" serif:id="Rivet" cx="283.339" cy="231.124" r="1.643" style="fill:#f4e16e;stroke:#e5b452;stroke-width:0.5px;"/><circle id="Rivet16" serif:id="Rivet" cx="275.529" cy="225.691" r="1.643" style="fill:#f4e16e;stroke:#e5b452;stroke-width:0.5px;"/><circle id="Rivet17" serif:id="Rivet" cx="267.428" cy="220.209" r="1.643" style="fill:#f4e16e;stroke:#e5b452;stroke-width:0.5px;"/><circle id="Rivet18" serif:id="Rivet" cx="260.201" cy="215.164" r="1.643" style="fill:#f4e16e;stroke:#e5b452;stroke-width:0.5px;"/><circle id="Rivet19" serif:id="Rivet" cx="253.943" cy="210.944" r="1.643" style="fill:#f4e16e;stroke:#e5b452;stroke-width:0.5px;"/><circle id="Rivet20" serif:id="Rivet" cx="246.909" cy="206.239" r="1.643" style="fill:#f4e16e;stroke:#e5b452;stroke-width:0.5px;"/><circle id="Rivet21" serif:id="Rivet" cx="226.217" cy="199.19" r="1.643" style="fill:#f4e16e;stroke:#e5b452;stroke-width:0.5px;"/><circle id="Rivet22" serif:id="Rivet" cx="218.334" cy="199.19" r="1.643" style="fill:#f4e16e;stroke:#e5b452;stroke-width:0.5px;"/><circle id="Rivet23" serif:id="Rivet" cx="217.897" cy="182.738" r="1.643" style="fill:#f4e16e;stroke:#e5b452;stroke-width:0.5px;"/><circle id="Rivet24" serif:id="Rivet" cx="224.325" cy="188.44" r="1.643" style="fill:#f4e16e;stroke:#e5b452;stroke-width:0.5px;"/><circle id="Rivet25" serif:id="Rivet" cx="210.148" cy="199.19" r="1.643" style="fill:#f4e16e;stroke:#e5b452;stroke-width:0.5px;"/><circle id="Rivet26" serif:id="Rivet" cx="310.407" cy="245.919" r="1.643" style="fill:#f4e16e;stroke:#e5b452;stroke-width:0.5px;"/><circle id="Rivet27" serif:id="Rivet" cx="315.755" cy="245.919" r="1.643" style="fill:#f4e16e;stroke:#e5b452;stroke-width:0.5px;"/></g><g id="Ramrod"><path d="M104.187,228.168c1.876,2.813 1.023,5.495 -0.841,8.563c-2.559,4.213 -1.112,-4.915 -4.68,4.666c-2.245,4.655 -2.232,-1.844 -4.492,2.541c-1.326,2.573 -1.951,-0.578 -3.276,2.875c-2.361,4.335 -1.549,-0.251 -4.333,2.533c-3.755,3.755 -2.648,-1.271 -6.07,2.79c-5.463,3.108 -7.022,1.362 -7.022,1.362c0,0 -3.988,-1.013 -5.151,-2.87c-1.823,-2.912 -2.24,-5.86 0.039,-8.042c2.914,-2.789 -4.069,-1.366 3.916,-4.177c5.221,-1.837 -2.282,-1.646 4.416,-3.258c4.449,-1.07 -4.801,-1.118 4.918,-3.168c5.011,-1.058 -5.387,-1.05 6.343,-3.669c6.107,-1.363 -1.896,-1.405 5.066,-2.235c5.007,-1.118 8.786,-1.482 11.167,2.089Z" style="fill:url(#_Linear19);stroke:#d88d39;stroke-width:0.7px;"/><path d="M234.254,149.617c-1.065,-0.745 -1.812,-1.968 -2.269,-3.626l-128.639,80.501l2.27,3.626l128.638,-80.501Z" style="fill:url(#_Linear20);stroke:#d88d39;stroke-width:0.7px;"/><path d="M71.441,248.58c0,0 2.216,0.323 2.946,-0.011c0.73,-0.334 0.872,-1.896 1.433,-1.993c0.56,-0.097 1.336,1.856 1.93,1.41c0.594,-0.445 0.928,-3.711 1.633,-4.082c0.705,-0.371 1.592,2.204 2.598,1.856c1.106,-0.384 3.16,-3.835 4.038,-4.157c0.797,-0.292 0.501,2.657 1.232,2.227c1.071,-0.631 4.206,-5.443 5.195,-6.013c0.781,-0.448 -0.004,3.102 0.743,2.598c0.952,-0.643 3.847,-5.604 4.973,-6.457c0.591,-0.449 1.459,1.596 1.781,1.336c0.322,-0.26 0.206,-2.017 0.149,-2.895" style="fill:url(#_Linear21);stroke:#d88d39;stroke-width:0.7px;"/><path d="M71.909,244.666c0.596,0.089 1.787,0.266 2.281,-0.076c0.494,-0.342 0.152,-1.609 0.684,-1.976c0.532,-0.368 2.02,0.114 2.508,-0.228c0.488,-0.343 -0.089,-1.522 0.418,-1.826c0.507,-0.305 1.875,0.392 2.622,0c0.748,-0.393 1.147,-1.969 1.862,-2.355c0.714,-0.385 1.939,0.355 2.433,0.038c0.494,-0.316 0.006,-1.523 0.532,-1.938c0.57,-0.45 2.115,-0.656 2.888,-0.76" style="fill:url(#_Linear22);stroke:#d88d39;stroke-width:0.7px;"/></g><g id="Barrel"><path d="M270.604,173.784c6.496,-2.012 6.428,-9.426 0,-11.438l0,2.041l-2.533,-0.017c-0.812,-4.878 -3.084,-8.137 -9.775,-7.995l0,3.232l-3.099,0c-2.074,-3.356 -4.851,-3.484 -6.94,0.526l-118.822,0c-2.745,-4.159 -6.416,-1.044 -6.52,-0.002l-3.374,0c0.112,-1.379 -1.343,-1.813 -3.412,-1.876c-0.849,-1.59 -3.561,-3.106 -6.732,-2.502l-0.003,12.312l0.003,12.312c3.171,0.603 5.883,-0.913 6.732,-2.502c1.706,-0.093 3.178,-0.404 3.412,-1.876l3.374,0c0.104,1.042 3.775,4.156 6.52,-0.002l118.822,0c2.089,4.01 4.866,3.881 6.94,0.526l3.099,0l0,3.232c6.691,0.142 8.963,-3.117 9.775,-7.996l2.533,-0.016l0,2.041Z" style="fill:url(#_Linear23);"/><clipPath id="_clip24"><path d="M270.604,173.784c6.496,-2.012 6.428,-9.426 0,-11.438l0,2.041l-2.533,-0.017c-0.812,-4.878 -3.084,-8.137 -9.775,-7.995l0,3.232l-3.099,0c-2.074,-3.356 -4.851,-3.484 -6.94,0.526l-118.822,0c-2.745,-4.159 -6.416,-1.044 -6.52,-0.002l-3.374,0c0.112,-1.379 -1.343,-1.813 -3.412,-1.876c-0.849,-1.59 -3.561,-3.106 -6.732,-2.502l-0.003,12.312l0.003,12.312c3.171,0.603 5.883,-0.913 6.732,-2.502c1.706,-0.093 3.178,-0.404 3.412,-1.876l3.374,0c0.104,1.042 3.775,4.156 6.52,-0.002l118.822,0c2.089,4.01 4.866,3.881 6.94,0.526l3.099,0l0,3.232c6.691,0.142 8.963,-3.117 9.775,-7.996l2.533,-0.016l0,2.041Z"/></clipPath><g clip-path="url(#_clip24)"><g id="Barrel-Interior" serif:id="Barrel Interior"><path d="M248.257,160.133l0,16.49" style="fill:none;stroke:#d88d39;stroke-width:0.7px;"/><path d="M255.217,159.388l0,17.235" style="fill:none;stroke:#d88d39;stroke-width:0.7px;"/><path d="M258.297,159.388l0,17.235" style="fill:none;stroke:#d88d39;stroke-width:0.7px;"/><path d="M268.079,164.384l0,7.864" style="fill:none;stroke:#d88d39;stroke-width:0.7px;"/><path d="M270.604,163.245l0,9.003" style="fill:none;stroke:#d88d39;stroke-width:0.7px;"/><path d="M122.911,160.131l0,15.942" style="fill:none;stroke:#d88d39;stroke-width:0.7px;"/><path d="M129.299,160.156l0,15.917" style="fill:none;stroke:#d88d39;stroke-width:0.7px;"/><path d="M119.541,159.607l0,16.466" style="fill:none;stroke:#d88d39;stroke-width:0.7px;"/><path d="M116.136,158.284l0,19.592" style="fill:none;stroke:#d88d39;stroke-width:0.7px;"/></g></g><path d="M270.604,173.784c6.496,-2.012 6.428,-9.426 0,-11.438l0,2.041l-2.533,-0.017c-0.812,-4.878 -3.084,-8.137 -9.775,-7.995l0,3.232l-3.099,0c-2.074,-3.356 -4.851,-3.484 -6.94,0.526l-118.822,0c-2.745,-4.159 -6.416,-1.044 -6.52,-0.002l-3.374,0c0.112,-1.379 -1.343,-1.813 -3.412,-1.876c-0.849,-1.59 -3.561,-3.106 -6.732,-2.502l-0.003,12.312l0.003,12.312c3.171,0.603 5.883,-0.913 6.732,-2.502c1.706,-0.093 3.178,-0.404 3.412,-1.876l3.374,0c0.104,1.042 3.775,4.156 6.52,-0.002l118.822,0c2.089,4.01 4.866,3.881 6.94,0.526l3.099,0l0,3.232c6.691,0.142 8.963,-3.117 9.775,-7.996l2.533,-0.016l0,2.041Z" style="fill:none;stroke:#d88d39;stroke-width:0.7px;"/></g><g id="Front-Wheel" serif:id="Front Wheel"><g id="Axle"><circle id="Axle1" serif:id="Axle" cx="188.734" cy="191.94" r="13.82" style="fill:url(#_Radial25);stroke:#d88d39;stroke-width:0.72px;"/><g><circle id="Interior-3" serif:id="Interior 3" cx="188.734" cy="192.148" r="8.192" style="fill:none;stroke:#d88d39;stroke-width:0.72px;"/><circle id="Interior-2" serif:id="Interior 2" cx="188.734" cy="192.148" r="4.777" style="fill:none;stroke:#d88d39;stroke-width:0.72px;"/><circle id="Interior-1" serif:id="Interior 1" cx="188.734" cy="192.027" r="11.406" style="fill:none;stroke:#d88d39;stroke-width:0.72px;"/></g></g><path d="M188.898,135.584c31.072,0 56.299,25.226 56.299,56.298c0,31.072 -25.227,56.298 -56.299,56.298c-31.071,0 -56.298,-25.226 -56.298,-56.298c0,-31.072 25.227,-56.298 56.298,-56.298Zm0,13.512c23.615,0 42.787,19.172 42.787,42.786c0,23.615 -19.172,42.787 -42.787,42.787c-23.614,0 -42.786,-19.172 -42.786,-42.787c0,-23.614 19.172,-42.786 42.786,-42.786Z" style="fill:url(#_Radial26);stroke:#d88d39;stroke-width:0.7px;"/><g><circle id="Front-Wheel-Int" serif:id="Front Wheel Int" cx="188.801" cy="191.545" r="42.911" style="fill:none;stroke:#d88d39;stroke-width:0.72px;"/><circle id="Front-Wheel-Int1" serif:id="Front Wheel Int" cx="188.898" cy="191.882" r="46.16" style="fill:none;stroke:#d88d39;stroke-width:0.72px;"/><circle id="Front-Wheel-Int2" serif:id="Front Wheel Int" cx="188.801" cy="191.882" r="52.863" style="fill:none;stroke:#d88d39;stroke-width:0.72px;"/><circle id="Front-Wheel-Ext" serif:id="Front Wheel Ext" cx="188.898" cy="191.882" r="56.298" style="fill:none;stroke:#d88d39;stroke-width:0.72px;"/></g><g><g><g id="Rod-Quad-1" serif:id="Rod Quad 1"><rect x="187.064" y="149.096" width="3.606" height="28.975" style="fill:url(#_Linear27);stroke:#d88d39;stroke-width:0.7px;"/><path d="M212.261,156.022l-3.123,-1.803l-14.487,25.093l3.123,1.803l14.487,-25.093Z" style="fill:url(#_Linear28);stroke:#d88d39;stroke-width:0.7px;"/><path d="M227.016,172.787l-1.803,-3.123l-25.094,14.488l1.803,3.123l25.094,-14.488Z" style="fill:url(#_Linear29);stroke:#d88d39;stroke-width:0.7px;"/><path d="M231.626,194.14l0,-3.606l-28.975,0l0,3.606l28.975,0Z" style="fill:url(#_Linear30);stroke:#d88d39;stroke-width:0.7px;"/></g><g id="Rod-Quad-4" serif:id="Rod Quad 4"><path d="M165.477,156.022l3.123,-1.803l14.487,25.093l-3.122,1.803l-14.488,-25.093Z" style="fill:url(#_Linear31);stroke:#d88d39;stroke-width:0.7px;"/><path d="M150.723,172.787l1.803,-3.123l25.093,14.488l-1.803,3.123l-25.093,-14.488Z" style="fill:url(#_Linear32);stroke:#d88d39;stroke-width:0.7px;"/><path d="M146.112,194.14l0,-3.606l28.975,0l0,3.606l-28.975,0Z" style="fill:url(#_Linear33);stroke:#d88d39;stroke-width:0.7px;"/></g></g><g><g id="Rod-Quad-11" serif:id="Rod Quad 1"><rect x="187.064" y="205.732" width="3.606" height="28.766" style="fill:url(#_Linear34);stroke:#d88d39;stroke-width:0.7px;"/><path d="M212.067,227.849l-3.122,1.803l-14.488,-25.093l3.123,-1.803l14.487,25.093Z" style="fill:url(#_Linear35);stroke:#d88d39;stroke-width:0.7px;"/><path d="M227.016,211.361l-1.803,3.123l-25.094,-14.487l1.803,-3.123l25.094,14.487Z" style="fill:url(#_Linear36);stroke:#d88d39;stroke-width:0.7px;"/></g><g id="Rod-Quad-41" serif:id="Rod Quad 4"><path d="M165.689,227.759l3.123,1.803l14.275,-24.726l-3.122,-1.803l-14.276,24.726Z" style="fill:url(#_Linear37);stroke:#d88d39;stroke-width:0.7px;"/><path d="M150.813,211.309l1.803,3.123l24.86,-14.353l-1.803,-3.123l-24.86,14.353Z" style="fill:url(#_Linear38);stroke:#d88d39;stroke-width:0.7px;"/></g></g></g></g></g><g id="Scrolls"><g><path d="M139.964,257.954c-10.334,-3.47 -12.779,2.856 -44.534,8.534c-29.874,2.341 -57.235,-13.232 -54,-30.074c-4.496,5.88 -10.037,13.058 -20,21.54c19.498,39.687 76.727,44.234 118,27l0.534,-27Z" style="fill:url(#_Linear39);stroke:#505a8c;stroke-width:0.7px;"/><path d="M243.93,257.954c10.334,-3.47 7.279,2.856 39.034,8.534c51.782,-6.135 36.05,-5.268 39.466,-22.534c2.315,-5.255 15.5,-2.513 14.534,-7.54c4.496,5.88 10.037,13.058 20,21.54c-19.498,39.687 -71.261,44.234 -112.534,27l-0.5,-27Z" style="fill:url(#_Linear40);stroke:#505a8c;stroke-width:0.7px;"/><path d="M257.43,278.134c-13.067,11.335 -32.656,-18.93 -67.864,-18.93c-31.928,0 -56.075,26.362 -68.136,17.782l0,24.968c28.825,16.983 52.034,-17.739 68.136,-17.739c17.677,0 47.004,37.303 67.864,16.739l0,-22.82Z" style="fill:url(#_Linear41);stroke:#505a8c;stroke-width:0.7px;"/></g><path d="M317.43,251.454c-3.334,-16.4 25.75,-22.811 18.5,-11c-8.365,0.291 -10.011,2.253 -14.5,11l-4,0Z" style="fill:#ffc500;stroke:#505a8c;stroke-width:0.7px;"/><path d="M41.93,236.954c6.139,-7.635 20.917,1.55 20,10c-12.47,1.069 -11.011,-12.05 -15.5,-3.302l-4.5,-6.698Z" style="fill:#ffc100;stroke:#505a8c;stroke-width:0.7px;"/><path d="M332.583,247.788c-1.6,2.781 -10.649,15.624 -15.153,3.666c9.437,1.421 9.158,-3.728 12.5,-12.5l2.653,8.834Z" style="fill:#ffde00;stroke:#505a8c;stroke-width:0.7px;"/><path d="M243.93,261.954c5.817,3.495 10.207,5.928 13.5,10.5c0.319,1.281 0.268,4.231 0,5.399c-0.941,0.774 -2.525,0.461 -2.592,0.222c-4.21,-2.822 -5.753,-6.662 -10.908,-9.371l0,-6.75Z" style="fill:#ffcb00;stroke:#505a8c;stroke-width:0.7px;"/><path d="M139.882,261.954c-5.817,3.495 -13.675,5.428 -16.968,10c-1.454,2.614 -1.42,3.637 -1.484,4.817c-0.048,0.864 2.273,0.78 3.734,0.568c1.469,-2.355 7.246,-7.299 14.614,-10.385l0.104,-5Z" style="fill:#ffc500;stroke:#505a8c;stroke-width:0.7px;"/><g><path d="M251.43,251.603c14.099,2.33 68.765,31.693 85.665,-15.015l4.605,5.866c-6.243,13.649 -18.94,23.738 -37.27,26.185c-25.45,3.397 -44.587,-12.208 -60.5,-11.185c0,0 1.148,-6.9 7.5,-5.851Z" style="fill:url(#_Linear42);stroke:#505a8c;stroke-width:0.7px;"/><path d="M133.43,251.954c-15.692,5.515 -67.049,29.398 -92,-15.54l-3.096,3.979c6.243,13.649 20.397,25.609 38.596,28.246c43.726,2.545 48.002,-14.503 63.034,-10.685c0,0 -0.183,-7.05 -6.534,-6Z" style="fill:url(#_Linear43);stroke:#505a8c;stroke-width:0.7px;"/><path d="M257.43,296.954c-19.427,14.55 -43.593,-12.949 -67.864,-12.949c-19.981,0 -48.649,29.118 -68.136,11.949l0,6c26.639,16.464 47.455,-13.188 68.136,-13c28.665,0.26 46.308,31.443 67.864,12.153l0,-4.153Z" style="fill:url(#_Linear44);stroke:#505a8c;stroke-width:0.7px;"/><path d="M257.43,277.983c-17.113,3.514 -36.758,-23.629 -67.864,-23.629c-27.386,0 -49.717,25.915 -68.136,22.629l0,6c19.519,4.182 47.455,-23.868 68.136,-23.68c28.665,0.26 52.359,33.401 67.864,22.833l0,-4.153Z" style="fill:url(#_Linear45);stroke:#505a8c;stroke-width:0.7px;"/><path d="M121.43,286.954c-52.173,7.893 -86.206,-1.644 -95.726,-32.825l-4.274,3.825c15.053,31.577 48.189,43.129 100,34l0,-5Z" style="fill:url(#_Linear46);stroke:#505a8c;stroke-width:0.7px;"/><path d="M257.43,284.454c44.631,13.8 86.728,3.695 95.5,-30.07l4.5,3.985c-15.486,34.601 -48.73,43.996 -100,31.085l0,-5Z" style="fill:url(#_Linear47);stroke:#505a8c;stroke-width:0.7px;"/></g><path d="M49.43,237.954l-3,6c2.797,3.977 6.236,7.183 10,10c2.612,-1.711 4.241,-4.163 5.5,-6.937c-5.498,0.396 -10.097,-1.434 -12.5,-9.063Z" style="fill:#ffd300;stroke:#505a8c;stroke-width:0.7px;"/><path d="M262.43,127.954c-48.471,-31.894 -95.839,-32.204 -142,2c5.294,6.574 10.132,13.734 14.5,21.5c29.726,-30.457 85.097,-29.961 114.5,-1.5c3.544,-7.548 7.682,-14.925 13,-22Z" style="fill:url(#_Linear48);stroke:#505a8c;stroke-width:0.7px;"/><path d="M262.43,127.954c-43.733,-32.667 -100.559,-31.327 -142,2l3.5,4.5c30.167,-30.205 98.115,-36.209 134.76,-1.163l3.74,-5.337Z" style="fill:url(#_Linear49);stroke:#505a8c;stroke-width:0.7px;"/><path d="M248.93,151.954c1.627,-2.118 -2.304,-3.411 -6,-6.53c-4.436,-3.743 -11.879,-3.105 -10.5,0.399c1.364,5.689 12.58,7.341 16.5,6.131Z" style="fill:#fb0;stroke:#505a8c;stroke-width:0.7px;"/><path d="M146.79,141.417c-4.095,-0.839 -2.715,-0.892 -7.305,0.631c-5.508,1.828 -7.105,9.233 -3.397,9.888c6.58,-2.17 9.663,-6.894 10.702,-10.519Z" style="fill:#fb0;stroke:#505a8c;stroke-width:0.7px;"/><path d="M233.93,140.454c-1.494,1.372 -1.574,2.697 -1.668,4.5c5.488,-0.091 9.83,0.58 11.668,6.206c1.534,-0.878 1.826,-0.968 2.5,-2.706c-4.322,-3.311 -8.59,-6.174 -12.5,-8Z" style="fill:#ffc300;stroke:#505a8c;stroke-width:0.7px;"/><path d="M252.275,144.204c-39.337,-28.011 -85.248,-24.04 -120.173,2.376l2.828,4.874c26.682,-25.864 80.656,-30.946 114.423,-0.5c0.545,-2.226 1.849,-4.663 2.922,-6.75Z" style="fill:url(#_Linear50);stroke:#505a8c;stroke-width:0.7px;"/></g><g id="Ubique"><path d="M146.661,121.774c-0.279,-0.589 -0.499,-0.988 -0.66,-1.195c-0.161,-0.208 -0.35,-0.347 -0.566,-0.417c-0.216,-0.071 -0.569,-0.063 -1.056,0.024l-0.369,-0.777l5.184,-2.459l0.369,0.778c-0.246,0.212 -0.43,0.403 -0.552,0.572c-0.122,0.168 -0.188,0.353 -0.198,0.555c-0.01,0.202 0.032,0.433 0.126,0.691c0.094,0.259 0.23,0.577 0.409,0.954l3.492,7.364c0.462,0.974 0.77,1.826 0.924,2.557c0.154,0.73 0.172,1.397 0.055,2.001c-0.118,0.605 -0.357,1.161 -0.718,1.668c-0.36,0.508 -0.819,0.966 -1.376,1.375c-0.556,0.408 -1.216,0.793 -1.978,1.154c-1.115,0.529 -2.113,0.86 -2.992,0.994c-0.88,0.133 -1.672,0.081 -2.377,-0.158c-0.705,-0.238 -1.331,-0.636 -1.88,-1.194c-0.548,-0.557 -1.072,-1.363 -1.571,-2.415l-3.616,-7.624c-0.175,-0.369 -0.332,-0.674 -0.47,-0.916c-0.139,-0.242 -0.287,-0.422 -0.444,-0.54c-0.157,-0.118 -0.343,-0.186 -0.559,-0.205c-0.215,-0.018 -0.491,0.005 -0.827,0.068l-0.368,-0.778l6.185,-2.933l0.369,0.777c-0.281,0.239 -0.475,0.444 -0.581,0.615c-0.107,0.171 -0.166,0.346 -0.177,0.524c-0.012,0.179 0.021,0.39 0.097,0.632c0.077,0.243 0.219,0.584 0.428,1.024l3.688,7.777c0.294,0.62 0.602,1.167 0.923,1.64c0.32,0.474 0.671,0.844 1.053,1.11c0.381,0.267 0.803,0.411 1.265,0.432c0.463,0.021 0.984,-0.106 1.566,-0.382c0.801,-0.38 1.322,-0.824 1.562,-1.332c0.24,-0.508 0.303,-1.089 0.19,-1.743c-0.112,-0.654 -0.441,-1.554 -0.985,-2.701l-3.565,-7.517Z" style="fill:url(#_Linear51);fill-rule:nonzero;stroke:#505a8c;stroke-width:0.7px;stroke-linecap:butt;stroke-miterlimit:1.41421;"/><path d="M167.366,119.395c1.254,-0.018 2.291,0.213 3.111,0.693c0.82,0.48 1.387,1.195 1.7,2.144c0.269,0.811 0.366,1.562 0.293,2.252c-0.074,0.69 -0.324,1.319 -0.753,1.888c-0.428,0.569 -0.988,1.067 -1.679,1.494c-0.691,0.426 -1.617,0.831 -2.777,1.215l-7.495,2.477l-0.266,-0.803c0.274,-0.18 0.482,-0.346 0.626,-0.497c0.143,-0.151 0.23,-0.323 0.26,-0.518c0.03,-0.194 0.015,-0.423 -0.045,-0.687c-0.06,-0.263 -0.154,-0.59 -0.283,-0.979l-3.467,-10.488c-0.126,-0.382 -0.242,-0.699 -0.348,-0.952c-0.106,-0.253 -0.229,-0.446 -0.368,-0.58c-0.138,-0.134 -0.312,-0.223 -0.52,-0.267c-0.208,-0.044 -0.479,-0.055 -0.814,-0.034l-0.266,-0.803l7.97,-2.635c0.909,-0.3 1.666,-0.501 2.271,-0.602c0.803,-0.131 1.534,-0.138 2.192,-0.023c0.592,0.101 1.111,0.353 1.559,0.754c0.447,0.4 0.784,0.942 1.009,1.623c0.606,1.833 -0.043,3.573 -1.946,5.219l0.036,0.109Zm-3.993,0.619c0.811,-0.269 1.409,-0.597 1.793,-0.985c0.385,-0.388 0.625,-0.838 0.721,-1.352c0.096,-0.513 0.018,-1.15 -0.234,-1.913c-0.223,-0.673 -0.529,-1.164 -0.919,-1.471c-0.389,-0.308 -0.851,-0.468 -1.386,-0.48c-0.535,-0.012 -1.16,0.1 -1.873,0.336c-0.568,0.188 -1.113,0.39 -1.635,0.608l1.915,5.792l1.618,-0.535Zm0.984,8.407c0.487,-0.134 1.042,-0.304 1.667,-0.511c0.77,-0.254 1.374,-0.559 1.809,-0.915c0.436,-0.356 0.714,-0.816 0.833,-1.382c0.119,-0.566 0.041,-1.262 -0.232,-2.09c-0.193,-0.584 -0.432,-1.06 -0.716,-1.43c-0.284,-0.369 -0.614,-0.634 -0.991,-0.793c-0.376,-0.158 -0.787,-0.23 -1.231,-0.213c-0.445,0.016 -0.971,0.125 -1.58,0.326l-1.691,0.559l2.132,6.449Z" style="fill:url(#_Linear52);fill-rule:nonzero;stroke:#505a8c;stroke-width:0.7px;stroke-linecap:butt;stroke-miterlimit:1.41421;"/><path d="M182.979,123.127c0.052,0.31 0.109,0.596 0.171,0.859c0.062,0.263 0.133,0.474 0.215,0.633c0.081,0.16 0.182,0.288 0.303,0.386c0.121,0.099 0.277,0.175 0.468,0.229c0.191,0.055 0.421,0.092 0.688,0.111l0.146,0.877l-6.974,1.164l-0.146,-0.877c0.313,-0.143 0.556,-0.282 0.729,-0.415c0.174,-0.134 0.292,-0.299 0.354,-0.496c0.063,-0.197 0.084,-0.438 0.064,-0.721c-0.02,-0.283 -0.065,-0.638 -0.136,-1.063l-1.914,-11.463c-0.07,-0.426 -0.14,-0.774 -0.208,-1.044c-0.068,-0.271 -0.163,-0.49 -0.287,-0.656c-0.123,-0.166 -0.289,-0.286 -0.497,-0.36c-0.208,-0.075 -0.488,-0.128 -0.839,-0.161l-0.146,-0.876l6.974,-1.165l0.146,0.877c-0.347,0.158 -0.597,0.307 -0.752,0.447c-0.154,0.139 -0.262,0.296 -0.324,0.47c-0.062,0.174 -0.089,0.393 -0.082,0.655c0.008,0.263 0.053,0.643 0.136,1.138l1.911,11.451Z" style="fill:url(#_Linear53);fill-rule:nonzero;stroke:#505a8c;stroke-width:0.7px;stroke-linecap:butt;stroke-miterlimit:1.41421;"/><path d="M198.542,123.357l0.22,0.348c0.163,0.267 0.318,0.5 0.463,0.7c0.146,0.201 0.305,0.377 0.478,0.529c0.172,0.152 0.34,0.264 0.504,0.335c0.163,0.071 0.345,0.114 0.543,0.13c0.237,0.019 0.442,0.014 0.613,-0.015c0.172,-0.028 0.354,-0.089 0.546,-0.181c0.192,-0.092 0.418,-0.232 0.68,-0.419l0.723,1.062c-0.551,0.441 -1.036,0.775 -1.454,1.004c-0.419,0.228 -0.816,0.381 -1.191,0.458c-0.376,0.078 -0.808,0.097 -1.298,0.058c-0.535,-0.043 -1.01,-0.142 -1.424,-0.299c-0.415,-0.156 -0.81,-0.407 -1.187,-0.752c-0.376,-0.346 -0.722,-0.812 -1.036,-1.399l-0.784,-1.535c-1.228,-0.23 -2.243,-0.667 -3.046,-1.312c-0.802,-0.645 -1.39,-1.546 -1.763,-2.704c-0.373,-1.157 -0.492,-2.584 -0.356,-4.281c0.138,-1.721 0.529,-3.169 1.173,-4.345c0.645,-1.176 1.523,-2.038 2.637,-2.588c1.114,-0.55 2.405,-0.766 3.873,-0.648c2.286,0.183 3.95,0.976 4.992,2.379c1.042,1.403 1.46,3.397 1.253,5.981c-0.169,2.103 -0.684,3.787 -1.547,5.053c-0.864,1.267 -2.068,2.08 -3.612,2.441Zm-5.097,-8.291c-0.185,2.309 -0.045,4.05 0.419,5.222c0.464,1.172 1.266,1.804 2.405,1.895c0.589,0.047 1.103,-0.072 1.541,-0.356c0.438,-0.284 0.808,-0.701 1.11,-1.25c0.302,-0.549 0.539,-1.209 0.712,-1.98c0.174,-0.771 0.298,-1.623 0.372,-2.556c0.122,-1.522 0.104,-2.806 -0.055,-3.854c-0.158,-1.048 -0.459,-1.853 -0.903,-2.416c-0.444,-0.562 -1.044,-0.874 -1.801,-0.934c-1.109,-0.089 -1.975,0.374 -2.599,1.39c-0.624,1.016 -1.024,2.629 -1.201,4.839Z" style="fill:url(#_Linear54);fill-rule:nonzero;stroke:#505a8c;stroke-width:0.7px;stroke-linecap:butt;stroke-miterlimit:1.41421;"/><path d="M223.183,115.544c0.163,-0.645 0.249,-1.101 0.257,-1.369c0.008,-0.268 -0.05,-0.499 -0.174,-0.695c-0.124,-0.196 -0.407,-0.419 -0.847,-0.667l0.215,-0.851l5.673,1.434l-0.215,0.851c-0.331,0.007 -0.599,0.038 -0.805,0.091c-0.205,0.053 -0.378,0.156 -0.517,0.308c-0.139,0.153 -0.255,0.361 -0.35,0.625c-0.094,0.264 -0.193,0.603 -0.297,1.015l-2.036,8.058c-0.27,1.066 -0.581,1.936 -0.934,2.61c-0.354,0.675 -0.773,1.211 -1.257,1.61c-0.485,0.399 -1.034,0.681 -1.647,0.846c-0.614,0.165 -1.272,0.227 -1.975,0.186c-0.703,-0.04 -1.471,-0.166 -2.305,-0.376c-1.22,-0.309 -2.22,-0.696 -2.998,-1.163c-0.778,-0.466 -1.367,-1.022 -1.767,-1.667c-0.399,-0.645 -0.633,-1.364 -0.702,-2.159c-0.069,-0.795 0.042,-1.768 0.333,-2.92l2.108,-8.341c0.102,-0.404 0.177,-0.747 0.225,-1.027c0.048,-0.281 0.049,-0.518 0.002,-0.713c-0.047,-0.195 -0.149,-0.369 -0.307,-0.523c-0.157,-0.154 -0.389,-0.316 -0.694,-0.484l0.216,-0.851l6.768,1.71l-0.215,0.851c-0.376,0.006 -0.662,0.041 -0.856,0.106c-0.195,0.065 -0.355,0.164 -0.48,0.297c-0.125,0.133 -0.236,0.32 -0.334,0.561c-0.097,0.24 -0.207,0.601 -0.328,1.083l-2.15,8.509c-0.172,0.679 -0.285,1.309 -0.341,1.889c-0.055,0.58 -0.019,1.099 0.108,1.556c0.126,0.458 0.365,0.845 0.714,1.162c0.35,0.317 0.843,0.556 1.479,0.716c0.877,0.222 1.574,0.211 2.093,-0.033c0.519,-0.244 0.946,-0.659 1.282,-1.247c0.336,-0.587 0.662,-1.508 0.98,-2.763l2.078,-8.225Z" style="fill:url(#_Linear55);fill-rule:nonzero;stroke:#505a8c;stroke-width:0.7px;stroke-linecap:butt;stroke-miterlimit:1.41421;"/><path d="M245.745,121.594l-1.7,3.736l-1.61,-0.733c0.08,-0.861 0.09,-1.464 0.029,-1.809c-0.061,-0.344 -0.181,-0.65 -0.363,-0.917c-0.181,-0.266 -0.573,-0.537 -1.176,-0.812l-2.561,-1.165l-2.567,5.639l1.551,0.706c0.344,0.157 0.637,0.231 0.877,0.222c0.241,-0.009 0.477,-0.097 0.71,-0.266c0.232,-0.168 0.516,-0.464 0.851,-0.888l1.328,0.604l-2.171,4.77l-1.328,-0.605c0.097,-0.504 0.133,-0.906 0.109,-1.205c-0.024,-0.3 -0.105,-0.542 -0.243,-0.728c-0.138,-0.185 -0.391,-0.362 -0.759,-0.529l-1.551,-0.706l-2.856,6.273l2.55,1.161c0.274,0.125 0.513,0.212 0.717,0.263c0.204,0.05 0.4,0.066 0.588,0.047c0.188,-0.018 0.385,-0.07 0.59,-0.157c0.204,-0.086 0.399,-0.192 0.583,-0.316c0.184,-0.124 0.399,-0.3 0.645,-0.529c0.246,-0.228 0.552,-0.557 0.917,-0.986l1.61,0.732l-2.175,4.187l-11.549,-5.257l0.353,-0.775c0.325,0.053 0.592,0.073 0.802,0.06c0.209,-0.014 0.392,-0.082 0.547,-0.205c0.155,-0.123 0.301,-0.303 0.437,-0.539c0.135,-0.236 0.289,-0.542 0.46,-0.918l4.61,-10.127c0.167,-0.368 0.298,-0.682 0.393,-0.942c0.094,-0.259 0.136,-0.486 0.125,-0.68c-0.011,-0.194 -0.078,-0.379 -0.202,-0.553c-0.124,-0.175 -0.317,-0.369 -0.579,-0.583l0.353,-0.775l11.655,5.305Z" style="fill:url(#_Linear56);fill-rule:nonzero;stroke:#505a8c;stroke-width:0.7px;stroke-linecap:butt;stroke-miterlimit:1.41421;"/></g><g id="Quo-Fas-Et-Gloria-Ducunt" serif:id="Quo Fas Et Gloria Ducunt"><path d="M40.451,269.252l0.006,0.205c-0.004,0.312 -0.002,0.599 0.006,0.859c0.008,0.261 0.031,0.52 0.07,0.778c0.038,0.258 0.09,0.481 0.154,0.668c0.065,0.188 0.141,0.344 0.231,0.468c0.089,0.124 0.187,0.225 0.294,0.301c0.295,0.21 0.589,0.337 0.882,0.38c0.293,0.043 0.607,0.039 0.943,-0.012l0.03,0.773c-0.716,0.12 -1.319,0.143 -1.808,0.069c-0.489,-0.074 -0.924,-0.246 -1.305,-0.518c-0.305,-0.218 -0.536,-0.427 -0.692,-0.628c-0.157,-0.2 -0.285,-0.437 -0.385,-0.711c-0.1,-0.273 -0.173,-0.633 -0.219,-1.078c-0.046,-0.446 -0.059,-1.017 -0.039,-1.714l0.014,-0.846c-1.288,-1.016 -1.94,-2.237 -1.954,-3.663c-0.015,-1.426 0.598,-3.007 1.837,-4.743c0.852,-1.196 1.767,-2.092 2.743,-2.69c0.977,-0.597 1.963,-0.878 2.961,-0.842c0.997,0.036 1.943,0.373 2.839,1.012c0.954,0.681 1.606,1.464 1.957,2.349c0.351,0.885 0.4,1.854 0.147,2.907c-0.254,1.053 -0.799,2.166 -1.637,3.34c-1.063,1.49 -2.199,2.521 -3.408,3.094c-1.21,0.573 -2.432,0.654 -3.667,0.242Zm-0.118,-8.456c-1.174,1.646 -1.827,3.068 -1.959,4.268c-0.132,1.2 0.263,2.129 1.185,2.787c0.584,0.416 1.213,0.584 1.886,0.502c0.673,-0.082 1.367,-0.41 2.083,-0.982c0.717,-0.573 1.417,-1.34 2.101,-2.299c0.834,-1.169 1.406,-2.223 1.716,-3.162c0.31,-0.939 0.383,-1.73 0.219,-2.373c-0.164,-0.643 -0.52,-1.16 -1.067,-1.55c-0.482,-0.344 -0.976,-0.527 -1.483,-0.548c-0.506,-0.022 -1.021,0.094 -1.545,0.347c-0.525,0.253 -1.049,0.637 -1.574,1.152c-0.525,0.515 -1.046,1.134 -1.562,1.858Z" style="fill:url(#_Linear57);fill-rule:nonzero;stroke:#505a8c;stroke-width:0.3px;stroke-linecap:butt;stroke-miterlimit:1.41421;"/><path d="M56.437,276.126c-0.395,0.599 -0.79,1.08 -1.186,1.442c-0.376,0.344 -0.774,0.606 -1.193,0.787c-0.38,0.16 -0.78,0.245 -1.198,0.258c-0.418,0.012 -0.869,-0.058 -1.352,-0.21c-0.483,-0.153 -0.999,-0.41 -1.549,-0.772c-0.665,-0.438 -1.187,-0.888 -1.565,-1.35c-0.378,-0.462 -0.611,-0.964 -0.699,-1.507c-0.088,-0.542 -0.049,-1.089 0.115,-1.638c0.165,-0.55 0.481,-1.18 0.948,-1.889l3.574,-5.428c0.283,-0.429 0.46,-0.728 0.532,-0.897c0.072,-0.17 0.111,-0.315 0.117,-0.438c0.006,-0.122 -0.02,-0.248 -0.078,-0.376c-0.057,-0.128 -0.197,-0.317 -0.419,-0.566l0.266,-0.404l3.465,2.281l-0.267,0.404c-0.358,-0.126 -0.63,-0.18 -0.814,-0.164c-0.184,0.017 -0.362,0.107 -0.533,0.271c-0.17,0.163 -0.404,0.47 -0.701,0.921l-3.846,5.84c-0.351,0.534 -0.59,1.019 -0.716,1.456c-0.126,0.437 -0.154,0.823 -0.083,1.158c0.072,0.335 0.218,0.64 0.438,0.915c0.221,0.276 0.54,0.551 0.958,0.826c0.385,0.254 0.768,0.409 1.148,0.466c0.38,0.057 0.758,0.013 1.135,-0.134c0.376,-0.146 0.732,-0.396 1.068,-0.751c0.336,-0.354 0.726,-0.87 1.172,-1.546l3.395,-5.155c0.315,-0.479 0.507,-0.822 0.576,-1.028c0.069,-0.207 0.081,-0.392 0.035,-0.557c-0.046,-0.164 -0.207,-0.4 -0.485,-0.709l0.266,-0.404l3.292,2.167l-0.266,0.404c-0.374,-0.127 -0.652,-0.181 -0.836,-0.159c-0.183,0.021 -0.358,0.11 -0.525,0.268c-0.167,0.158 -0.399,0.463 -0.696,0.914l-3.493,5.304Z" style="fill:url(#_Linear58);fill-rule:nonzero;stroke:#505a8c;stroke-width:0.3px;stroke-linecap:butt;stroke-miterlimit:1.41421;"/><path d="M62.905,283.46c-0.684,-0.396 -1.241,-0.869 -1.672,-1.419c-0.431,-0.55 -0.71,-1.179 -0.836,-1.887c-0.127,-0.709 -0.085,-1.497 0.124,-2.364c0.21,-0.868 0.613,-1.818 1.21,-2.849c0.736,-1.271 1.561,-2.25 2.477,-2.938c0.915,-0.687 1.871,-1.06 2.867,-1.119c0.996,-0.058 1.97,0.188 2.922,0.739c1.014,0.587 1.738,1.305 2.171,2.153c0.434,0.848 0.574,1.808 0.422,2.88c-0.153,1.072 -0.59,2.232 -1.313,3.48c-0.772,1.333 -1.623,2.343 -2.553,3.03c-0.93,0.686 -1.89,1.047 -2.88,1.082c-0.991,0.036 -1.97,-0.227 -2.939,-0.788Zm0.726,-7.739c-1.013,1.749 -1.528,3.227 -1.546,4.434c-0.018,1.207 0.463,2.094 1.443,2.662c0.622,0.359 1.263,0.466 1.926,0.321c0.662,-0.145 1.322,-0.537 1.981,-1.175c0.659,-0.638 1.283,-1.468 1.874,-2.488c0.719,-1.242 1.188,-2.345 1.408,-3.31c0.22,-0.964 0.217,-1.759 -0.007,-2.383c-0.224,-0.625 -0.627,-1.105 -1.208,-1.441c-0.513,-0.297 -1.023,-0.433 -1.529,-0.406c-0.506,0.027 -1.008,0.191 -1.506,0.492c-0.498,0.301 -0.983,0.733 -1.457,1.296c-0.474,0.562 -0.934,1.228 -1.379,1.998Z" style="fill:url(#_Linear59);fill-rule:nonzero;stroke:#505a8c;stroke-width:0.3px;stroke-linecap:butt;stroke-miterlimit:1.41421;"/><path d="M90.437,273.149l0,2.983l-0.967,0c-0.145,-0.448 -0.285,-0.81 -0.42,-1.086c-0.135,-0.277 -0.277,-0.488 -0.425,-0.633c-0.148,-0.144 -0.321,-0.246 -0.518,-0.306c-0.198,-0.059 -0.458,-0.089 -0.781,-0.089l-2.893,0l0,5.373l2.034,0c0.29,0 0.517,-0.047 0.682,-0.143c0.164,-0.095 0.301,-0.255 0.409,-0.479c0.109,-0.224 0.213,-0.57 0.312,-1.037l0.928,0l0,4.168l-0.928,0c-0.099,-0.448 -0.205,-0.785 -0.316,-1.012c-0.112,-0.228 -0.246,-0.389 -0.4,-0.484c-0.155,-0.096 -0.384,-0.144 -0.687,-0.144l-2.034,0l0,3.872c0,0.395 0.023,0.711 0.069,0.948c0.046,0.237 0.121,0.425 0.227,0.563c0.105,0.138 0.247,0.242 0.425,0.311c0.177,0.069 0.398,0.134 0.661,0.193l0,0.484l-4.385,0l0,-0.484c0.408,-0.106 0.682,-0.222 0.82,-0.351c0.138,-0.128 0.229,-0.311 0.271,-0.548c0.043,-0.237 0.065,-0.599 0.065,-1.086l0,-8.544c0,-0.454 -0.017,-0.785 -0.05,-0.992c-0.033,-0.208 -0.087,-0.369 -0.163,-0.484c-0.075,-0.115 -0.176,-0.208 -0.301,-0.277c-0.125,-0.069 -0.339,-0.146 -0.642,-0.232l0,-0.484l9.007,0Z" style="fill:url(#_Linear60);fill-rule:nonzero;stroke:#505a8c;stroke-width:0.3px;stroke-linecap:butt;stroke-miterlimit:1.41421;"/><path d="M100.008,286.612l-0.012,-0.484c0.328,-0.074 0.571,-0.152 0.731,-0.235c0.159,-0.082 0.277,-0.196 0.352,-0.339c0.076,-0.143 0.111,-0.333 0.105,-0.57c-0.005,-0.224 -0.037,-0.466 -0.096,-0.724c-0.058,-0.259 -0.141,-0.549 -0.247,-0.869l-0.396,-1.265l-4.601,0.108l-0.313,0.976c-0.159,0.491 -0.263,0.862 -0.309,1.114c-0.047,0.251 -0.068,0.479 -0.063,0.683c0.009,0.395 0.116,0.682 0.321,0.862c0.205,0.179 0.516,0.294 0.932,0.343l0.011,0.484l-4.216,0.099l-0.011,-0.483c0.367,-0.068 0.683,-0.29 0.947,-0.665c0.265,-0.375 0.518,-0.908 0.758,-1.598l3.86,-11.028l1.56,-0.036l3.617,10.93c0.17,0.51 0.319,0.898 0.447,1.165c0.128,0.267 0.279,0.474 0.454,0.621c0.175,0.148 0.411,0.254 0.709,0.32l0.011,0.483l-4.551,0.108Zm-3.918,-5.243l4.128,-0.097l-2.026,-6.324l-2.102,6.421Z" style="fill:url(#_Linear61);fill-rule:nonzero;stroke:#505a8c;stroke-width:0.3px;stroke-linecap:butt;stroke-miterlimit:1.41421;"/><path d="M108.703,282.289c0.261,0.534 0.539,0.938 0.835,1.213c0.295,0.276 0.634,0.451 1.017,0.526c0.383,0.075 0.847,0.049 1.392,-0.08c0.749,-0.177 1.278,-0.509 1.586,-0.994c0.308,-0.486 0.374,-1.104 0.197,-1.853c-0.114,-0.481 -0.293,-0.865 -0.537,-1.152c-0.244,-0.288 -0.589,-0.531 -1.035,-0.73c-0.446,-0.199 -1.102,-0.399 -1.968,-0.6c-0.838,-0.194 -1.517,-0.418 -2.037,-0.671c-0.519,-0.252 -0.936,-0.561 -1.249,-0.927c-0.313,-0.366 -0.528,-0.795 -0.645,-1.289c-0.169,-0.717 -0.148,-1.38 0.063,-1.989c0.211,-0.608 0.608,-1.133 1.19,-1.575c0.583,-0.442 1.294,-0.762 2.133,-0.961c0.487,-0.115 0.969,-0.202 1.445,-0.26c0.477,-0.059 1.086,-0.081 1.827,-0.067l0.613,2.595l-0.951,0.225c-0.281,-0.529 -0.571,-0.924 -0.869,-1.185c-0.299,-0.261 -0.613,-0.418 -0.944,-0.472c-0.331,-0.054 -0.736,-0.024 -1.217,0.09c-0.416,0.099 -0.771,0.264 -1.065,0.495c-0.294,0.232 -0.5,0.526 -0.619,0.882c-0.118,0.357 -0.127,0.749 -0.025,1.179c0.107,0.455 0.28,0.82 0.517,1.095c0.238,0.276 0.562,0.507 0.971,0.694c0.41,0.188 0.994,0.368 1.752,0.54c0.917,0.216 1.643,0.447 2.178,0.693c0.535,0.245 0.983,0.564 1.342,0.956c0.36,0.392 0.611,0.889 0.754,1.492c0.159,0.672 0.188,1.266 0.086,1.781c-0.102,0.514 -0.305,0.961 -0.611,1.342c-0.306,0.38 -0.705,0.697 -1.196,0.952c-0.491,0.255 -1.047,0.456 -1.669,0.603c-1.006,0.238 -2.206,0.342 -3.6,0.313l-0.622,-2.634l0.961,-0.227Z" style="fill:url(#_Linear62);fill-rule:nonzero;stroke:#505a8c;stroke-width:0.3px;stroke-linecap:butt;stroke-miterlimit:1.41421;"/><path d="M141.783,283.467l0.62,2.917l-0.947,0.201c-0.163,-0.295 -0.322,-0.551 -0.476,-0.767c-0.153,-0.216 -0.302,-0.393 -0.446,-0.531c-0.144,-0.138 -0.292,-0.241 -0.444,-0.31c-0.153,-0.068 -0.323,-0.101 -0.511,-0.098c-0.188,0.003 -0.407,0.031 -0.658,0.084l-3.053,0.649l1.075,5.062l2.067,-0.439c0.284,-0.06 0.497,-0.148 0.641,-0.263c0.144,-0.114 0.249,-0.28 0.314,-0.495c0.065,-0.216 0.102,-0.54 0.112,-0.973l0.908,-0.193l0.788,3.71l-0.908,0.193c-0.173,-0.368 -0.334,-0.638 -0.486,-0.811c-0.151,-0.173 -0.311,-0.286 -0.48,-0.337c-0.169,-0.052 -0.405,-0.045 -0.708,0.019l-2.067,0.439l1.184,5.574l3.004,-0.638c0.316,-0.067 0.566,-0.148 0.751,-0.245c0.185,-0.096 0.334,-0.226 0.447,-0.388c0.114,-0.162 0.203,-0.361 0.267,-0.597c0.065,-0.236 0.11,-0.476 0.135,-0.72c0.026,-0.244 0.056,-0.599 0.092,-1.065l0.957,-0.203l0.536,3.43l-8.946,1.9l-0.1,-0.473c0.377,-0.188 0.62,-0.359 0.729,-0.513c0.108,-0.155 0.159,-0.352 0.151,-0.593c-0.007,-0.241 -0.061,-0.599 -0.162,-1.076l-1.775,-8.357c-0.095,-0.444 -0.18,-0.764 -0.255,-0.96c-0.075,-0.196 -0.162,-0.343 -0.26,-0.44c-0.098,-0.097 -0.215,-0.166 -0.352,-0.208c-0.137,-0.041 -0.362,-0.073 -0.676,-0.093l-0.101,-0.474l9.033,-1.918Z" style="fill:url(#_Linear63);fill-rule:nonzero;stroke:#505a8c;stroke-width:0.3px;stroke-linecap:butt;stroke-miterlimit:1.41421;"/><path d="M144.497,282.042l10.128,-3.411l1.097,3.257l-0.917,0.309c-0.318,-0.49 -0.597,-0.869 -0.836,-1.136c-0.24,-0.267 -0.461,-0.456 -0.666,-0.568c-0.204,-0.112 -0.404,-0.173 -0.598,-0.184c-0.195,-0.011 -0.464,0.042 -0.807,0.157l-1.189,0.401l3.228,9.584c0.124,0.368 0.243,0.655 0.357,0.86c0.114,0.204 0.235,0.357 0.362,0.456c0.128,0.1 0.275,0.161 0.443,0.185c0.168,0.023 0.416,0.017 0.745,-0.017l0.154,0.459l-4.277,1.44l-0.155,-0.458c0.173,-0.107 0.322,-0.209 0.449,-0.308c0.127,-0.098 0.223,-0.198 0.29,-0.3c0.066,-0.103 0.11,-0.22 0.131,-0.352c0.022,-0.132 0.017,-0.301 -0.014,-0.506c-0.031,-0.205 -0.109,-0.495 -0.235,-0.869l-3.228,-9.585l-1.18,0.397c-0.293,0.099 -0.525,0.209 -0.697,0.329c-0.171,0.12 -0.308,0.297 -0.41,0.529c-0.103,0.233 -0.166,0.535 -0.19,0.908c-0.023,0.373 -0.011,0.829 0.039,1.368l-0.927,0.312l-1.097,-3.257Z" style="fill:url(#_Linear64);fill-rule:nonzero;stroke:#505a8c;stroke-width:0.3px;stroke-linecap:butt;stroke-miterlimit:1.41421;"/><path d="M179.023,280.778l-0.671,0.432l-0.921,-0.515c-0.328,0.381 -0.695,0.703 -1.103,0.964c-0.407,0.261 -0.899,0.484 -1.476,0.668c-1.587,0.507 -2.956,0.344 -4.106,-0.488c-1.15,-0.832 -2.068,-2.32 -2.753,-4.466c-0.426,-1.336 -0.581,-2.579 -0.465,-3.729c0.117,-1.15 0.5,-2.127 1.148,-2.932c0.649,-0.805 1.528,-1.385 2.638,-1.739c0.584,-0.186 1.156,-0.333 1.716,-0.439c0.56,-0.106 1.196,-0.183 1.907,-0.23l0.826,2.587l-0.932,0.298c-0.349,-0.511 -0.691,-0.887 -1.024,-1.13c-0.333,-0.243 -0.683,-0.38 -1.049,-0.412c-0.366,-0.031 -0.797,0.032 -1.292,0.19c-0.684,0.218 -1.213,0.629 -1.587,1.232c-0.374,0.604 -0.567,1.379 -0.579,2.326c-0.013,0.947 0.175,2.026 0.561,3.237c0.393,1.229 0.849,2.242 1.369,3.036c0.519,0.795 1.088,1.338 1.706,1.628c0.618,0.29 1.275,0.323 1.971,0.101c0.74,-0.236 1.238,-0.573 1.492,-1.01c0.255,-0.437 0.275,-0.991 0.06,-1.662l-0.18,-0.565c-0.18,-0.565 -0.34,-0.963 -0.48,-1.195c-0.139,-0.231 -0.307,-0.392 -0.501,-0.482c-0.195,-0.09 -0.479,-0.124 -0.852,-0.102l-0.147,-0.461l3.801,-1.213l0.148,0.461c-0.202,0.147 -0.344,0.287 -0.426,0.421c-0.082,0.133 -0.129,0.281 -0.143,0.445c-0.014,0.163 0.002,0.353 0.047,0.57c0.046,0.217 0.13,0.52 0.254,0.909l1.043,3.265Z" style="fill:url(#_Linear65);fill-rule:nonzero;stroke:#505a8c;stroke-width:0.3px;stroke-linecap:butt;stroke-miterlimit:1.41421;"/><path d="M185.233,278.312l2.586,-0.091c0.283,-0.01 0.519,-0.035 0.709,-0.075c0.189,-0.04 0.35,-0.096 0.483,-0.17c0.132,-0.074 0.251,-0.174 0.355,-0.299c0.104,-0.126 0.202,-0.289 0.294,-0.49c0.092,-0.201 0.177,-0.453 0.255,-0.755c0.078,-0.303 0.173,-0.756 0.283,-1.359l0.997,-0.035l-0.057,3.975l-8.874,0.313l-0.017,-0.484c0.404,-0.12 0.673,-0.246 0.807,-0.379c0.134,-0.133 0.218,-0.319 0.252,-0.558c0.034,-0.238 0.043,-0.601 0.026,-1.088l-0.301,-8.537c-0.016,-0.455 -0.045,-0.785 -0.085,-0.991c-0.04,-0.206 -0.1,-0.365 -0.18,-0.478c-0.079,-0.112 -0.183,-0.201 -0.311,-0.265c-0.127,-0.065 -0.344,-0.135 -0.649,-0.21l-0.017,-0.483l4.155,-0.147l0.017,0.484c-0.287,0.089 -0.49,0.167 -0.609,0.234c-0.12,0.066 -0.217,0.154 -0.292,0.262c-0.076,0.108 -0.129,0.271 -0.161,0.49c-0.032,0.218 -0.039,0.565 -0.023,1.038l0.357,10.098Z" style="fill:url(#_Linear66);fill-rule:nonzero;stroke:#505a8c;stroke-width:0.3px;stroke-linecap:butt;stroke-miterlimit:1.41421;"/><path d="M198.145,279.181c-0.763,-0.205 -1.424,-0.517 -1.983,-0.936c-0.559,-0.419 -0.991,-0.955 -1.297,-1.606c-0.306,-0.651 -0.47,-1.423 -0.493,-2.315c-0.023,-0.893 0.12,-1.915 0.429,-3.066c0.381,-1.418 0.924,-2.578 1.629,-3.479c0.706,-0.901 1.532,-1.51 2.479,-1.825c0.947,-0.315 1.951,-0.33 3.013,-0.045c1.132,0.304 2.018,0.809 2.656,1.516c0.639,0.706 1.024,1.597 1.154,2.672c0.131,1.074 0.01,2.308 -0.364,3.701c-0.399,1.488 -0.959,2.684 -1.679,3.589c-0.72,0.904 -1.554,1.502 -2.501,1.793c-0.947,0.291 -1.961,0.291 -3.043,0.001Zm-1.307,-7.662c-0.524,1.952 -0.638,3.513 -0.342,4.683c0.296,1.171 0.991,1.903 2.085,2.196c0.693,0.186 1.34,0.123 1.942,-0.189c0.602,-0.312 1.138,-0.862 1.609,-1.649c0.47,-0.788 0.858,-1.751 1.163,-2.889c0.373,-1.386 0.54,-2.574 0.501,-3.562c-0.038,-0.989 -0.246,-1.755 -0.625,-2.3c-0.378,-0.545 -0.892,-0.904 -1.541,-1.078c-0.572,-0.154 -1.099,-0.152 -1.581,0.005c-0.482,0.157 -0.924,0.445 -1.327,0.866c-0.402,0.42 -0.759,0.963 -1.071,1.63c-0.312,0.666 -0.583,1.428 -0.813,2.287Z" style="fill:url(#_Linear67);fill-rule:nonzero;stroke:#505a8c;stroke-width:0.3px;stroke-linecap:butt;stroke-miterlimit:1.41421;"/><path d="M211.087,278.105l-1.494,3.008c-0.211,0.424 -0.348,0.741 -0.411,0.948c-0.062,0.208 -0.086,0.377 -0.069,0.506c0.016,0.13 0.065,0.253 0.147,0.371c0.081,0.117 0.238,0.282 0.471,0.493l-0.215,0.434l-3.733,-1.854l0.216,-0.434c0.412,0.087 0.709,0.104 0.89,0.051c0.181,-0.054 0.343,-0.177 0.487,-0.37c0.144,-0.194 0.324,-0.508 0.541,-0.945l3.801,-7.651c0.202,-0.407 0.334,-0.71 0.397,-0.911c0.063,-0.2 0.086,-0.369 0.069,-0.506c-0.016,-0.137 -0.065,-0.264 -0.146,-0.381c-0.082,-0.118 -0.239,-0.282 -0.472,-0.494l0.215,-0.433l4.379,2.175c1.379,0.685 2.287,1.448 2.722,2.289c0.435,0.842 0.39,1.79 -0.134,2.845c-0.401,0.808 -0.965,1.385 -1.692,1.73c-0.726,0.344 -1.614,0.455 -2.662,0.331l-0.035,0.071c0.286,0.326 0.49,0.69 0.61,1.091c0.12,0.402 0.193,0.969 0.218,1.703l0.076,1.846c0.019,0.539 0.055,0.961 0.109,1.267c0.054,0.306 0.137,0.561 0.25,0.764c0.112,0.202 0.298,0.398 0.558,0.586l-0.216,0.433l-2.45,-1.217c-0.069,-0.424 -0.114,-0.866 -0.136,-1.325c-0.022,-0.459 -0.038,-0.923 -0.048,-1.391l-0.044,-1.864c-0.013,-0.565 -0.043,-0.991 -0.087,-1.278c-0.045,-0.287 -0.11,-0.505 -0.194,-0.654c-0.085,-0.148 -0.191,-0.274 -0.319,-0.379c-0.129,-0.104 -0.337,-0.228 -0.626,-0.371l-0.973,-0.484Zm2.988,-6.014l-2.61,5.254l0.999,0.496c0.513,0.255 0.947,0.425 1.302,0.509c0.355,0.085 0.72,0.091 1.094,0.019c0.373,-0.071 0.733,-0.251 1.078,-0.539c0.345,-0.288 0.651,-0.7 0.918,-1.237c0.278,-0.56 0.414,-1.074 0.407,-1.54c-0.007,-0.467 -0.157,-0.894 -0.45,-1.282c-0.292,-0.388 -0.769,-0.746 -1.429,-1.074c-0.531,-0.264 -0.967,-0.466 -1.309,-0.606Z" style="fill:url(#_Linear68);fill-rule:nonzero;stroke:#505a8c;stroke-width:0.3px;stroke-linecap:butt;stroke-miterlimit:1.41421;"/><path d="M224.344,288.803c-0.199,0.394 -0.332,0.689 -0.397,0.884c-0.066,0.196 -0.095,0.362 -0.087,0.499c0.009,0.137 0.055,0.271 0.14,0.402c0.085,0.132 0.244,0.301 0.479,0.508l-0.219,0.432l-3.719,-1.881l0.219,-0.432c0.412,0.09 0.708,0.109 0.889,0.057c0.182,-0.052 0.345,-0.174 0.49,-0.366c0.145,-0.193 0.328,-0.506 0.548,-0.941l3.856,-7.623c0.206,-0.405 0.34,-0.708 0.404,-0.908c0.065,-0.2 0.089,-0.368 0.073,-0.505c-0.015,-0.137 -0.063,-0.265 -0.143,-0.383c-0.081,-0.118 -0.237,-0.284 -0.469,-0.497l0.219,-0.432l3.719,1.881l-0.218,0.432c-0.292,-0.066 -0.511,-0.096 -0.658,-0.089c-0.147,0.007 -0.279,0.041 -0.396,0.104c-0.117,0.063 -0.24,0.183 -0.37,0.361c-0.131,0.177 -0.299,0.469 -0.504,0.874l-3.856,7.623Z" style="fill:url(#_Linear69);fill-rule:nonzero;stroke:#505a8c;stroke-width:0.3px;stroke-linecap:butt;stroke-miterlimit:1.41421;"/><path d="M236.02,296.636l0.142,-0.462c0.334,0.033 0.59,0.036 0.767,0.008c0.178,-0.029 0.325,-0.099 0.442,-0.211c0.117,-0.112 0.21,-0.282 0.28,-0.508c0.065,-0.214 0.111,-0.453 0.137,-0.717c0.026,-0.265 0.039,-0.565 0.039,-0.903l0.024,-1.325l-4.4,-1.349l-0.605,0.827c-0.307,0.416 -0.522,0.735 -0.645,0.959c-0.124,0.224 -0.216,0.433 -0.276,0.629c-0.115,0.377 -0.104,0.684 0.034,0.919c0.138,0.235 0.396,0.442 0.775,0.62l-0.141,0.463l-4.033,-1.236l0.142,-0.463c0.37,0.051 0.74,-0.059 1.109,-0.332c0.369,-0.272 0.777,-0.698 1.223,-1.278l7.143,-9.246l1.492,0.458l-0.018,11.513c0.001,0.537 0.02,0.953 0.057,1.246c0.038,0.294 0.116,0.539 0.235,0.734c0.119,0.195 0.31,0.37 0.572,0.526l-0.142,0.463l-4.353,-1.335Zm-2.063,-6.21l3.948,1.21l0.073,-6.641l-4.021,5.431Z" style="fill:url(#_Linear70);fill-rule:nonzero;stroke:#505a8c;stroke-width:0.3px;stroke-linecap:butt;stroke-miterlimit:1.41421;"/><path d="M262.301,280.941l0.148,-0.461c0.313,0.018 0.543,0.012 0.69,-0.016c0.148,-0.029 0.273,-0.086 0.377,-0.17c0.103,-0.084 0.202,-0.222 0.298,-0.412c0.096,-0.191 0.213,-0.502 0.352,-0.935l2.615,-8.133c0.141,-0.439 0.228,-0.762 0.26,-0.97c0.032,-0.207 0.029,-0.376 -0.009,-0.506c-0.037,-0.129 -0.105,-0.246 -0.203,-0.35c-0.098,-0.104 -0.281,-0.245 -0.55,-0.421l0.148,-0.461l4.119,1.324c1.184,0.381 2.113,0.823 2.784,1.326c0.672,0.503 1.186,1.092 1.543,1.767c0.358,0.675 0.543,1.432 0.557,2.27c0.014,0.838 -0.147,1.78 -0.483,2.827c-0.341,1.059 -0.761,1.953 -1.262,2.681c-0.5,0.728 -1.07,1.29 -1.709,1.686c-0.554,0.347 -1.172,0.581 -1.854,0.701c-0.563,0.095 -1.178,0.095 -1.846,-0.002c-0.667,-0.097 -1.524,-0.314 -2.571,-0.651l-3.404,-1.094Zm3.149,0.048c0.243,0.105 0.609,0.237 1.097,0.394c0.527,0.169 1.011,0.276 1.453,0.322c0.442,0.045 0.863,0.028 1.262,-0.051c0.398,-0.08 0.787,-0.244 1.164,-0.492c0.377,-0.249 0.721,-0.564 1.03,-0.945c0.309,-0.381 0.589,-0.826 0.838,-1.333c0.25,-0.508 0.477,-1.078 0.68,-1.712c0.409,-1.272 0.562,-2.376 0.458,-3.312c-0.103,-0.936 -0.429,-1.699 -0.975,-2.29c-0.547,-0.591 -1.284,-1.035 -2.212,-1.334c-0.426,-0.137 -0.835,-0.254 -1.225,-0.352l-3.57,11.105Z" style="fill:url(#_Linear71);fill-rule:nonzero;stroke:#505a8c;stroke-width:0.3px;stroke-linecap:butt;stroke-miterlimit:1.41421;"/><path d="M289.801,282.106c-0.093,0.712 -0.239,1.317 -0.437,1.815c-0.188,0.474 -0.431,0.884 -0.728,1.23c-0.273,0.31 -0.595,0.561 -0.966,0.755c-0.37,0.194 -0.806,0.328 -1.307,0.402c-0.501,0.074 -1.078,0.068 -1.731,-0.017c-0.79,-0.103 -1.456,-0.28 -1.998,-0.53c-0.541,-0.25 -0.97,-0.6 -1.287,-1.05c-0.316,-0.449 -0.52,-0.957 -0.612,-1.524c-0.092,-0.566 -0.083,-1.271 0.027,-2.113l0.842,-6.444c0.067,-0.509 0.095,-0.856 0.086,-1.04c-0.009,-0.183 -0.038,-0.332 -0.086,-0.444c-0.049,-0.113 -0.127,-0.214 -0.234,-0.305c-0.108,-0.09 -0.316,-0.199 -0.625,-0.325l0.063,-0.48l4.113,0.537l-0.063,0.48c-0.378,0.044 -0.646,0.113 -0.804,0.209c-0.159,0.095 -0.279,0.254 -0.361,0.476c-0.082,0.221 -0.158,0.6 -0.228,1.135l-0.906,6.934c-0.083,0.633 -0.086,1.174 -0.008,1.622c0.077,0.449 0.221,0.808 0.432,1.078c0.21,0.27 0.475,0.48 0.794,0.631c0.319,0.152 0.726,0.26 1.222,0.325c0.457,0.059 0.869,0.032 1.236,-0.083c0.367,-0.115 0.688,-0.32 0.962,-0.616c0.275,-0.296 0.485,-0.677 0.633,-1.143c0.147,-0.465 0.273,-1.1 0.378,-1.903l0.8,-6.12c0.074,-0.568 0.097,-0.96 0.069,-1.177c-0.028,-0.216 -0.099,-0.388 -0.212,-0.515c-0.113,-0.128 -0.361,-0.27 -0.746,-0.427l0.063,-0.479l3.907,0.51l-0.062,0.48c-0.392,0.049 -0.665,0.122 -0.821,0.222c-0.156,0.099 -0.274,0.256 -0.356,0.471c-0.081,0.215 -0.156,0.59 -0.226,1.126l-0.823,6.297Z" style="fill:url(#_Linear72);fill-rule:nonzero;stroke:#505a8c;stroke-width:0.3px;stroke-linecap:butt;stroke-miterlimit:1.41421;"/><path d="M303.536,273.474l0.158,2.731l-0.976,0.057c-0.191,-0.563 -0.418,-1.006 -0.68,-1.331c-0.263,-0.324 -0.56,-0.549 -0.89,-0.675c-0.331,-0.126 -0.723,-0.176 -1.176,-0.15c-0.678,0.04 -1.268,0.3 -1.771,0.781c-0.503,0.481 -0.879,1.182 -1.129,2.103c-0.25,0.922 -0.338,2.023 -0.263,3.305c0.074,1.288 0.263,2.381 0.566,3.276c0.302,0.896 0.71,1.562 1.224,1.997c0.513,0.435 1.125,0.632 1.834,0.591c0.539,-0.031 0.975,-0.134 1.308,-0.308c0.333,-0.175 0.606,-0.436 0.82,-0.785c0.214,-0.349 0.408,-0.855 0.58,-1.518l0.976,-0.056l0.164,2.82c-0.608,0.2 -1.234,0.36 -1.877,0.48c-0.642,0.119 -1.352,0.202 -2.127,0.247c-1.67,0.097 -2.965,-0.395 -3.885,-1.476c-0.92,-1.081 -1.445,-2.743 -1.575,-4.984c-0.082,-1.407 0.069,-2.652 0.451,-3.736c0.382,-1.084 0.987,-1.941 1.815,-2.569c0.827,-0.628 1.839,-0.977 3.035,-1.047c0.599,-0.034 1.153,-0.035 1.662,-0.002c0.51,0.033 1.095,0.116 1.756,0.249Z" style="fill:url(#_Linear73);fill-rule:nonzero;stroke:#505a8c;stroke-width:0.3px;stroke-linecap:butt;stroke-miterlimit:1.41421;"/><path d="M319.593,278.02c0.236,0.678 0.377,1.284 0.424,1.819c0.045,0.507 0.011,0.982 -0.099,1.425c-0.105,0.399 -0.28,0.769 -0.524,1.108c-0.245,0.34 -0.574,0.655 -0.989,0.946c-0.414,0.291 -0.933,0.545 -1.554,0.761c-0.753,0.262 -1.427,0.403 -2.023,0.423c-0.597,0.019 -1.137,-0.101 -1.622,-0.361c-0.484,-0.26 -0.895,-0.623 -1.231,-1.088c-0.336,-0.465 -0.644,-1.099 -0.923,-1.901l-2.138,-6.137c-0.169,-0.485 -0.299,-0.807 -0.39,-0.968c-0.09,-0.16 -0.182,-0.279 -0.276,-0.358c-0.094,-0.079 -0.209,-0.135 -0.346,-0.167c-0.137,-0.033 -0.372,-0.036 -0.704,-0.011l-0.16,-0.457l3.918,-1.365l0.159,0.457c-0.318,0.209 -0.526,0.391 -0.625,0.548c-0.099,0.156 -0.136,0.352 -0.11,0.587c0.027,0.235 0.128,0.607 0.306,1.117l2.3,6.603c0.21,0.604 0.451,1.088 0.721,1.454c0.27,0.366 0.56,0.622 0.869,0.769c0.309,0.147 0.64,0.217 0.993,0.209c0.353,-0.008 0.766,-0.094 1.238,-0.259c0.436,-0.152 0.791,-0.361 1.068,-0.628c0.276,-0.267 0.471,-0.595 0.583,-0.982c0.113,-0.388 0.13,-0.823 0.053,-1.305c-0.077,-0.482 -0.249,-1.106 -0.515,-1.871l-2.031,-5.829c-0.188,-0.541 -0.344,-0.902 -0.466,-1.082c-0.122,-0.181 -0.262,-0.303 -0.42,-0.366c-0.158,-0.064 -0.444,-0.079 -0.858,-0.046l-0.159,-0.458l3.721,-1.296l0.159,0.457c-0.328,0.219 -0.539,0.408 -0.634,0.566c-0.095,0.159 -0.13,0.352 -0.106,0.581c0.024,0.229 0.124,0.598 0.302,1.108l2.089,5.997Z" style="fill:url(#_Linear74);fill-rule:nonzero;stroke:#505a8c;stroke-width:0.3px;stroke-linecap:butt;stroke-miterlimit:1.41421;"/><path d="M331.121,269.958c0.437,0.146 0.813,0.28 1.128,0.4c0.315,0.121 0.658,0.266 1.027,0.435l0.098,-0.084c-0.286,-0.284 -0.827,-0.871 -1.623,-1.763c-0.797,-0.891 -1.507,-1.703 -2.131,-2.433l-1.348,-1.577c-0.295,-0.346 -0.521,-0.59 -0.678,-0.733c-0.157,-0.143 -0.298,-0.235 -0.423,-0.275c-0.125,-0.04 -0.257,-0.047 -0.394,-0.021c-0.138,0.027 -0.349,0.106 -0.635,0.238l-0.315,-0.368l2.704,-2.31l0.314,0.368c-0.174,0.253 -0.286,0.444 -0.336,0.573c-0.049,0.129 -0.069,0.258 -0.058,0.388c0.011,0.129 0.07,0.286 0.177,0.472c0.106,0.186 0.316,0.462 0.628,0.827l7.192,8.418l-0.939,0.802l-10.175,-3.44c-0.632,-0.213 -1.089,-0.373 -1.37,-0.479c-0.281,-0.106 -0.553,-0.216 -0.815,-0.33l-0.127,0.109c0.364,0.355 0.985,1.031 1.861,2.027c0.877,0.996 1.743,1.994 2.599,2.996l1.308,1.531c0.287,0.336 0.508,0.572 0.663,0.707c0.155,0.136 0.297,0.227 0.427,0.272c0.129,0.045 0.271,0.054 0.425,0.027c0.154,-0.028 0.372,-0.11 0.653,-0.247l0.315,0.368l-2.741,2.342l-0.314,-0.368c0.241,-0.345 0.373,-0.612 0.395,-0.799c0.022,-0.188 -0.028,-0.385 -0.149,-0.593c-0.122,-0.208 -0.341,-0.498 -0.657,-0.868l-5.55,-6.496c-0.295,-0.345 -0.522,-0.586 -0.682,-0.722c-0.16,-0.137 -0.306,-0.224 -0.438,-0.262c-0.133,-0.039 -0.269,-0.044 -0.409,-0.015c-0.14,0.029 -0.353,0.109 -0.639,0.241l-0.314,-0.368l2.35,-2.008l8.996,3.018Z" style="fill:url(#_Linear75);fill-rule:nonzero;stroke:#505a8c;stroke-width:0.3px;stroke-linecap:butt;stroke-miterlimit:1.41421;"/><path d="M331.425,259.276l7.811,-7.294l2.345,2.512l-0.707,0.661c-0.492,-0.315 -0.903,-0.545 -1.231,-0.689c-0.328,-0.144 -0.608,-0.224 -0.84,-0.242c-0.233,-0.017 -0.44,0.01 -0.622,0.08c-0.181,0.071 -0.405,0.23 -0.669,0.477l-0.917,0.856l6.903,7.392c0.265,0.284 0.491,0.495 0.68,0.635c0.189,0.139 0.361,0.228 0.519,0.266c0.157,0.038 0.316,0.033 0.479,-0.016c0.162,-0.048 0.386,-0.155 0.671,-0.322l0.33,0.353l-3.298,3.081l-0.331,-0.354c0.113,-0.168 0.207,-0.324 0.282,-0.465c0.074,-0.142 0.121,-0.273 0.139,-0.394c0.018,-0.12 0.01,-0.245 -0.026,-0.375c-0.035,-0.129 -0.109,-0.281 -0.222,-0.455c-0.113,-0.173 -0.304,-0.405 -0.573,-0.693l-6.903,-7.392l-0.909,0.849c-0.227,0.211 -0.393,0.407 -0.499,0.587c-0.107,0.181 -0.158,0.398 -0.155,0.652c0.003,0.254 0.07,0.556 0.203,0.905c0.132,0.349 0.333,0.759 0.601,1.229l-0.715,0.668l-2.346,-2.512Z" style="fill:url(#_Linear76);fill-rule:nonzero;stroke:#505a8c;stroke-width:0.3px;stroke-linecap:butt;stroke-miterlimit:1.41421;"/></g></g><defs><radialGradient id="_Radial1" cx="0" cy="0" r="1" gradientUnits="userSpaceOnUse" gradientTransform="matrix(40.9085,0,0,15.9893,189.566,89.7128)"><stop offset="0" style="stop-color:#f3e350;stop-opacity:1"/><stop offset="1" style="stop-color:#d8b039;stop-opacity:1"/></radialGradient><radialGradient id="_Radial2" cx="0" cy="0" r="1" gradientUnits="userSpaceOnUse" gradientTransform="matrix(40.9085,0,0,15.9893,189.566,89.7128)"><stop offset="0" style="stop-color:#f3e350;stop-opacity:1"/><stop offset="1" style="stop-color:#d8b039;stop-opacity:1"/></radialGradient><linearGradient id="_Linear3" x1="0" y1="0" x2="1" y2="0" gradientUnits="userSpaceOnUse" gradientTransform="matrix(5.75011e-15,93.9064,-57.1104,3.497e-15,189.719,9.92385)"><stop offset="0" style="stop-color:#f3e350;stop-opacity:1"/><stop offset="1" style="stop-color:#d8b039;stop-opacity:1"/></linearGradient><linearGradient id="_Linear4" x1="0" y1="0" x2="1" y2="0" gradientUnits="userSpaceOnUse" gradientTransform="matrix(3.55271e-15,39.9166,-14.5058,8.88178e-16,189.566,58.7834)"><stop offset="0" style="stop-color:#f3e350;stop-opacity:1"/><stop offset="1" style="stop-color:#d89a39;stop-opacity:1"/></linearGradient><linearGradient id="_Linear5" x1="0" y1="0" x2="1" y2="0" gradientUnits="userSpaceOnUse" gradientTransform="matrix(1.77636e-15,39.9166,-14.5058,4.44089e-16,189.566,58.7834)"><stop offset="0" style="stop-color:#f3e350;stop-opacity:1"/><stop offset="1" style="stop-color:#d89a39;stop-opacity:1"/></linearGradient><linearGradient id="_Linear6" x1="0" y1="0" x2="1" y2="0" gradientUnits="userSpaceOnUse" gradientTransform="matrix(3.49934e-15,57.1486,-16.782,1.0276e-15,189.719,60.2802)"><stop offset="0" style="stop-color:#f3e350;stop-opacity:1"/><stop offset="1" style="stop-color:#d89a39;stop-opacity:1"/></linearGradient><linearGradient id="_Linear7" x1="0" y1="0" x2="1" y2="0" gradientUnits="userSpaceOnUse" gradientTransform="matrix(2.27436e-15,37.1431,-37.0885,2.27102e-15,189.566,24.634)"><stop offset="0" style="stop-color:#f3e350;stop-opacity:1"/><stop offset="1" style="stop-color:#d8b039;stop-opacity:1"/></linearGradient><linearGradient id="_Linear8" x1="0" y1="0" x2="1" y2="0" gradientUnits="userSpaceOnUse" gradientTransform="matrix(2.27436e-15,37.1431,-37.0885,2.27102e-15,189.566,24.634)"><stop offset="0" style="stop-color:#f3e350;stop-opacity:1"/><stop offset="1" style="stop-color:#d8b039;stop-opacity:1"/></linearGradient><linearGradient id="_Linear9" x1="0" y1="0" x2="1" y2="0" gradientUnits="userSpaceOnUse" gradientTransform="matrix(2.27436e-15,37.1431,-37.0885,2.27102e-15,189.566,24.634)"><stop offset="0" style="stop-color:#f3e350;stop-opacity:1"/><stop offset="1" style="stop-color:#d8b039;stop-opacity:1"/></linearGradient><radialGradient id="_Radial10" cx="0" cy="0" r="1" gradientUnits="userSpaceOnUse" gradientTransform="matrix(-7.89369e-14,-2.20994,3.21486,-1.14853e-13,173.199,90.9213)"><stop offset="0" style="stop-color:#70cf56;stop-opacity:1"/><stop offset="1" style="stop-color:#135d00;stop-opacity:1"/></radialGradient><radialGradient id="_Radial11" cx="0" cy="0" r="1" gradientUnits="userSpaceOnUse" gradientTransform="matrix(-4.63517,-0.457459,-0.325984,3.30301,218.43,93.2223)"><stop offset="0" style="stop-color:#df776f;stop-opacity:1"/><stop offset="1" style="stop-color:#5d0c00;stop-opacity:1"/></radialGradient><radialGradient id="_Radial12" cx="0" cy="0" r="1" gradientUnits="userSpaceOnUse" gradientTransform="matrix(-3.8056,-0.259725,-0.148558,2.17673,204.481,90.9213)"><stop offset="0" style="stop-color:#70cf56;stop-opacity:1"/><stop offset="1" style="stop-color:#135d00;stop-opacity:1"/></radialGradient><radialGradient id="_Radial13" cx="0" cy="0" r="1" gradientUnits="userSpaceOnUse" gradientTransform="matrix(2.35922e-16,3.66789,-7.38496,4.57967e-16,189.43,89.7419)"><stop offset="0" style="stop-color:#1f62d7;stop-opacity:1"/><stop offset="1" style="stop-color:#002a74;stop-opacity:1"/></radialGradient><linearGradient id="_Linear14" x1="0" y1="0" x2="1" y2="0" gradientUnits="userSpaceOnUse" gradientTransform="matrix(0.0559151,249.696,-249.696,0.0559151,178.997,7.87326)"><stop offset="0" style="stop-color:#f7ea74;stop-opacity:1"/><stop offset="1" style="stop-color:#d88d39;stop-opacity:1"/></linearGradient><linearGradient id="_Linear16" x1="0" y1="0" x2="1" y2="0" gradientUnits="userSpaceOnUse" gradientTransform="matrix(-12.0243,82.8302,-55.319,-8.03055,259.627,174.441)"><stop offset="0" style="stop-color:#f7ea74;stop-opacity:1"/><stop offset="1" style="stop-color:#d88d39;stop-opacity:1"/></linearGradient><linearGradient id="_Linear17" x1="0" y1="0" x2="1" y2="0" gradientUnits="userSpaceOnUse" gradientTransform="matrix(-21.7301,49.0051,-49.0051,-21.7301,275.45,196.063)"><stop offset="0" style="stop-color:#f7ea74;stop-opacity:1"/><stop offset="1" style="stop-color:#d88d39;stop-opacity:1"/></linearGradient><linearGradient id="_Linear19" x1="0" y1="0" x2="1" y2="0" gradientUnits="userSpaceOnUse" gradientTransform="matrix(24.6825,45.6171,-30.0491,16.259,135.27,196.456)"><stop offset="0" style="stop-color:#f7ea74;stop-opacity:1"/><stop offset="1" style="stop-color:#d88d39;stop-opacity:1"/></linearGradient><linearGradient id="_Linear20" x1="0" y1="0" x2="1" y2="0" gradientUnits="userSpaceOnUse" gradientTransform="matrix(24.6825,45.6171,-30.0491,16.259,135.27,196.456)"><stop offset="0" style="stop-color:#f7ea74;stop-opacity:1"/><stop offset="1" style="stop-color:#d88d39;stop-opacity:1"/></linearGradient><linearGradient id="_Linear21" x1="0" y1="0" x2="1" y2="0" gradientUnits="userSpaceOnUse" gradientTransform="matrix(24.6825,45.6171,-30.0491,16.259,135.27,196.456)"><stop offset="0" style="stop-color:#f7ea74;stop-opacity:1"/><stop offset="1" style="stop-color:#d88d39;stop-opacity:1"/></linearGradient><linearGradient id="_Linear22" x1="0" y1="0" x2="1" y2="0" gradientUnits="userSpaceOnUse" gradientTransform="matrix(24.6825,45.6171,-30.0491,16.259,135.27,196.456)"><stop offset="0" style="stop-color:#f7ea74;stop-opacity:1"/><stop offset="1" style="stop-color:#d88d39;stop-opacity:1"/></linearGradient><linearGradient id="_Linear23" x1="0" y1="0" x2="1" y2="0" gradientUnits="userSpaceOnUse" gradientTransform="matrix(1.07319e-15,17.5265,-17.5265,1.07319e-15,188.898,166.018)"><stop offset="0" style="stop-color:#f7ea74;stop-opacity:1"/><stop offset="1" style="stop-color:#d88d39;stop-opacity:1"/></linearGradient><radialGradient id="_Radial25" cx="0" cy="0" r="1" gradientUnits="userSpaceOnUse" gradientTransform="matrix(20.0933,0,0,24.792,188.898,191.94)"><stop offset="0" style="stop-color:#f7ea74;stop-opacity:1"/><stop offset="1" style="stop-color:#d88d39;stop-opacity:1"/></radialGradient><radialGradient id="_Radial26" cx="0" cy="0" r="1" gradientUnits="userSpaceOnUse" gradientTransform="matrix(8.26083e-15,134.91,-134.91,8.26083e-15,188.898,149.096)"><stop offset="0" style="stop-color:#f7ea74;stop-opacity:1"/><stop offset="1" style="stop-color:#d88d39;stop-opacity:1"/></radialGradient><linearGradient id="_Linear27" x1="0" y1="0" x2="1" y2="0" gradientUnits="userSpaceOnUse" gradientTransform="matrix(9.84999e-15,160.862,-160.651,9.83706e-15,188.898,131.38)"><stop offset="0" style="stop-color:#f7ea74;stop-opacity:1"/><stop offset="1" style="stop-color:#d88d39;stop-opacity:1"/></linearGradient><linearGradient id="_Linear28" x1="0" y1="0" x2="1" y2="0" gradientUnits="userSpaceOnUse" gradientTransform="matrix(1.42109e-14,160.862,-160.651,1.42109e-14,188.898,131.38)"><stop offset="0" style="stop-color:#f7ea74;stop-opacity:1"/><stop offset="1" style="stop-color:#d88d39;stop-opacity:1"/></linearGradient><linearGradient id="_Linear29" x1="0" y1="0" x2="1" y2="0" gradientUnits="userSpaceOnUse" gradientTransform="matrix(0,160.862,-160.651,0,188.898,131.38)"><stop offset="0" style="stop-color:#f7ea74;stop-opacity:1"/><stop offset="1" style="stop-color:#d88d39;stop-opacity:1"/></linearGradient><linearGradient id="_Linear30" x1="0" y1="0" x2="1" y2="0" gradientUnits="userSpaceOnUse" gradientTransform="matrix(9.84999e-15,160.862,-160.651,9.83706e-15,188.898,131.38)"><stop offset="0" style="stop-color:#f7ea74;stop-opacity:1"/><stop offset="1" style="stop-color:#d88d39;stop-opacity:1"/></linearGradient><linearGradient id="_Linear31" x1="0" y1="0" x2="1" y2="0" gradientUnits="userSpaceOnUse" gradientTransform="matrix(1.42109e-14,160.862,-160.651,1.42109e-14,188.898,131.38)"><stop offset="0" style="stop-color:#f7ea74;stop-opacity:1"/><stop offset="1" style="stop-color:#d88d39;stop-opacity:1"/></linearGradient><linearGradient id="_Linear32" x1="0" y1="0" x2="1" y2="0" gradientUnits="userSpaceOnUse" gradientTransform="matrix(2.84217e-14,160.862,-160.651,2.84217e-14,188.898,131.38)"><stop offset="0" style="stop-color:#f7ea74;stop-opacity:1"/><stop offset="1" style="stop-color:#d88d39;stop-opacity:1"/></linearGradient><linearGradient id="_Linear33" x1="0" y1="0" x2="1" y2="0" gradientUnits="userSpaceOnUse" gradientTransform="matrix(9.84999e-15,160.862,-160.651,9.83706e-15,188.898,131.38)"><stop offset="0" style="stop-color:#f7ea74;stop-opacity:1"/><stop offset="1" style="stop-color:#d88d39;stop-opacity:1"/></linearGradient><linearGradient id="_Linear34" x1="0" y1="0" x2="1" y2="0" gradientUnits="userSpaceOnUse" gradientTransform="matrix(9.84999e-15,160.862,-160.651,9.83706e-15,188.898,131.38)"><stop offset="0" style="stop-color:#f7ea74;stop-opacity:1"/><stop offset="1" style="stop-color:#d88d39;stop-opacity:1"/></linearGradient><linearGradient id="_Linear35" x1="0" y1="0" x2="1" y2="0" gradientUnits="userSpaceOnUse" gradientTransform="matrix(1.42109e-14,160.862,-160.651,1.42109e-14,188.898,131.38)"><stop offset="0" style="stop-color:#f7ea74;stop-opacity:1"/><stop offset="1" style="stop-color:#d88d39;stop-opacity:1"/></linearGradient><linearGradient id="_Linear36" x1="0" y1="0" x2="1" y2="0" gradientUnits="userSpaceOnUse" gradientTransform="matrix(2.84217e-14,160.862,-160.651,2.84217e-14,188.898,131.38)"><stop offset="0" style="stop-color:#f7ea74;stop-opacity:1"/><stop offset="1" style="stop-color:#d88d39;stop-opacity:1"/></linearGradient><linearGradient id="_Linear37" x1="0" y1="0" x2="1" y2="0" gradientUnits="userSpaceOnUse" gradientTransform="matrix(1.42109e-14,160.862,-160.651,1.42109e-14,188.898,131.38)"><stop offset="0" style="stop-color:#f7ea74;stop-opacity:1"/><stop offset="1" style="stop-color:#d88d39;stop-opacity:1"/></linearGradient><linearGradient id="_Linear38" x1="0" y1="0" x2="1" y2="0" gradientUnits="userSpaceOnUse" gradientTransform="matrix(0,160.862,-160.651,0,188.898,131.38)"><stop offset="0" style="stop-color:#f7ea74;stop-opacity:1"/><stop offset="1" style="stop-color:#d88d39;stop-opacity:1"/></linearGradient><linearGradient id="_Linear39" x1="0" y1="0" x2="1" y2="0" gradientUnits="userSpaceOnUse" gradientTransform="matrix(6.08992e-15,99.456,-20.9637,1.28366e-15,188.867,234.498)"><stop offset="0" style="stop-color:#2687ff;stop-opacity:1"/><stop offset="1" style="stop-color:#004599;stop-opacity:1"/></linearGradient><linearGradient id="_Linear40" x1="0" y1="0" x2="1" y2="0" gradientUnits="userSpaceOnUse" gradientTransform="matrix(6.08992e-15,99.456,-20.9637,1.28366e-15,188.867,234.498)"><stop offset="0" style="stop-color:#2687ff;stop-opacity:1"/><stop offset="1" style="stop-color:#004599;stop-opacity:1"/></linearGradient><linearGradient id="_Linear41" x1="0" y1="0" x2="1" y2="0" gradientUnits="userSpaceOnUse" gradientTransform="matrix(6.08992e-15,99.456,-20.9637,1.28366e-15,188.867,234.498)"><stop offset="0" style="stop-color:#2687ff;stop-opacity:1"/><stop offset="1" style="stop-color:#004599;stop-opacity:1"/></linearGradient><linearGradient id="_Linear42" x1="0" y1="0" x2="1" y2="0" gradientUnits="userSpaceOnUse" gradientTransform="matrix(1.00761e-14,164.556,-34.7657,2.12879e-15,189.43,228.178)"><stop offset="0" style="stop-color:#ffd300;stop-opacity:1"/><stop offset="1" style="stop-color:#997f00;stop-opacity:1"/></linearGradient><linearGradient id="_Linear43" x1="0" y1="0" x2="1" y2="0" gradientUnits="userSpaceOnUse" gradientTransform="matrix(1.00761e-14,164.556,-34.7657,2.12879e-15,189.43,228.178)"><stop offset="0" style="stop-color:#ffd300;stop-opacity:1"/><stop offset="1" style="stop-color:#997f00;stop-opacity:1"/></linearGradient><linearGradient id="_Linear44" x1="0" y1="0" x2="1" y2="0" gradientUnits="userSpaceOnUse" gradientTransform="matrix(1.00761e-14,164.556,-34.7657,2.12879e-15,189.43,228.178)"><stop offset="0" style="stop-color:#ffd300;stop-opacity:1"/><stop offset="1" style="stop-color:#997f00;stop-opacity:1"/></linearGradient><linearGradient id="_Linear45" x1="0" y1="0" x2="1" y2="0" gradientUnits="userSpaceOnUse" gradientTransform="matrix(1.00761e-14,164.556,-34.7657,2.12879e-15,189.43,228.178)"><stop offset="0" style="stop-color:#ffd300;stop-opacity:1"/><stop offset="1" style="stop-color:#997f00;stop-opacity:1"/></linearGradient><linearGradient id="_Linear46" x1="0" y1="0" x2="1" y2="0" gradientUnits="userSpaceOnUse" gradientTransform="matrix(1.00761e-14,164.556,-34.7657,2.12879e-15,189.43,228.178)"><stop offset="0" style="stop-color:#ffd300;stop-opacity:1"/><stop offset="1" style="stop-color:#997f00;stop-opacity:1"/></linearGradient><linearGradient id="_Linear47" x1="0" y1="0" x2="1" y2="0" gradientUnits="userSpaceOnUse" gradientTransform="matrix(1.00761e-14,164.556,-34.7657,2.12879e-15,189.43,228.178)"><stop offset="0" style="stop-color:#ffd300;stop-opacity:1"/><stop offset="1" style="stop-color:#997f00;stop-opacity:1"/></linearGradient><linearGradient id="_Linear48" x1="0" y1="0" x2="1" y2="0" gradientUnits="userSpaceOnUse" gradientTransform="matrix(5.25608e-15,85.8383,-85.8383,5.25608e-15,188.898,92.7601)"><stop offset="0" style="stop-color:#2687ff;stop-opacity:1"/><stop offset="1" style="stop-color:#004599;stop-opacity:1"/></linearGradient><linearGradient id="_Linear49" x1="0" y1="0" x2="1" y2="0" gradientUnits="userSpaceOnUse" gradientTransform="matrix(5.11581e-15,83.5475,-17.8061,1.09031e-15,188.898,89.7419)"><stop offset="0" style="stop-color:#f3e350;stop-opacity:1"/><stop offset="1" style="stop-color:#d89a39;stop-opacity:1"/></linearGradient><linearGradient id="_Linear50" x1="0" y1="0" x2="1" y2="0" gradientUnits="userSpaceOnUse" gradientTransform="matrix(5.11581e-15,83.5475,-17.8061,1.09031e-15,188.898,89.7419)"><stop offset="0" style="stop-color:#f3e350;stop-opacity:1"/><stop offset="1" style="stop-color:#d89a39;stop-opacity:1"/></linearGradient><linearGradient id="_Linear51" x1="0" y1="0" x2="1" y2="0" gradientUnits="userSpaceOnUse" gradientTransform="matrix(-2.76484,119.705,-35.7141,-0.824892,189.112,104.19)"><stop offset="0" style="stop-color:#ffd300;stop-opacity:1"/><stop offset="1" style="stop-color:#c3a200;stop-opacity:1"/></linearGradient><linearGradient id="_Linear52" x1="0" y1="0" x2="1" y2="0" gradientUnits="userSpaceOnUse" gradientTransform="matrix(-2.76484,119.705,-35.7141,-0.824892,189.112,104.19)"><stop offset="0" style="stop-color:#ffd300;stop-opacity:1"/><stop offset="1" style="stop-color:#c3a200;stop-opacity:1"/></linearGradient><linearGradient id="_Linear53" x1="0" y1="0" x2="1" y2="0" gradientUnits="userSpaceOnUse" gradientTransform="matrix(-2.76484,119.705,-35.7141,-0.824892,189.112,104.19)"><stop offset="0" style="stop-color:#ffd300;stop-opacity:1"/><stop offset="1" style="stop-color:#c3a200;stop-opacity:1"/></linearGradient><linearGradient id="_Linear54" x1="0" y1="0" x2="1" y2="0" gradientUnits="userSpaceOnUse" gradientTransform="matrix(-2.76484,119.705,-35.7141,-0.824892,189.112,104.19)"><stop offset="0" style="stop-color:#ffd300;stop-opacity:1"/><stop offset="1" style="stop-color:#c3a200;stop-opacity:1"/></linearGradient><linearGradient id="_Linear55" x1="0" y1="0" x2="1" y2="0" gradientUnits="userSpaceOnUse" gradientTransform="matrix(-2.76484,119.705,-35.7141,-0.824892,189.112,104.19)"><stop offset="0" style="stop-color:#ffd300;stop-opacity:1"/><stop offset="1" style="stop-color:#c3a200;stop-opacity:1"/></linearGradient><linearGradient id="_Linear56" x1="0" y1="0" x2="1" y2="0" gradientUnits="userSpaceOnUse" gradientTransform="matrix(-2.76484,119.705,-35.7141,-0.824892,189.112,104.19)"><stop offset="0" style="stop-color:#ffd300;stop-opacity:1"/><stop offset="1" style="stop-color:#c3a200;stop-opacity:1"/></linearGradient><linearGradient id="_Linear57" x1="0" y1="0" x2="1" y2="0" gradientUnits="userSpaceOnUse" gradientTransform="matrix(0,61.6559,-61.6559,0,189.112,262.55)"><stop offset="0" style="stop-color:#ffd300;stop-opacity:1"/><stop offset="1" style="stop-color:#c3a200;stop-opacity:1"/></linearGradient><linearGradient id="_Linear58" x1="0" y1="0" x2="1" y2="0" gradientUnits="userSpaceOnUse" gradientTransform="matrix(0,61.6559,-61.6559,0,189.112,262.55)"><stop offset="0" style="stop-color:#ffd300;stop-opacity:1"/><stop offset="1" style="stop-color:#c3a200;stop-opacity:1"/></linearGradient><linearGradient id="_Linear59" x1="0" y1="0" x2="1" y2="0" gradientUnits="userSpaceOnUse" gradientTransform="matrix(3.55271e-15,61.6559,-61.6559,3.55271e-15,189.112,262.55)"><stop offset="0" style="stop-color:#ffd300;stop-opacity:1"/><stop offset="1" style="stop-color:#c3a200;stop-opacity:1"/></linearGradient><linearGradient id="_Linear60" x1="0" y1="0" x2="1" y2="0" gradientUnits="userSpaceOnUse" gradientTransform="matrix(3.77533e-15,61.6559,-61.6559,3.77533e-15,189.112,262.55)"><stop offset="0" style="stop-color:#ffd300;stop-opacity:1"/><stop offset="1" style="stop-color:#c3a200;stop-opacity:1"/></linearGradient><linearGradient id="_Linear61" x1="0" y1="0" x2="1" y2="0" gradientUnits="userSpaceOnUse" gradientTransform="matrix(3.77476e-15,61.6559,-61.6559,3.77476e-15,189.112,262.55)"><stop offset="0" style="stop-color:#ffd300;stop-opacity:1"/><stop offset="1" style="stop-color:#c3a200;stop-opacity:1"/></linearGradient><linearGradient id="_Linear62" x1="0" y1="0" x2="1" y2="0" gradientUnits="userSpaceOnUse" gradientTransform="matrix(5.32907e-15,61.6559,-61.6559,5.32907e-15,189.112,262.55)"><stop offset="0" style="stop-color:#ffd300;stop-opacity:1"/><stop offset="1" style="stop-color:#c3a200;stop-opacity:1"/></linearGradient><linearGradient id="_Linear63" x1="0" y1="0" x2="1" y2="0" gradientUnits="userSpaceOnUse" gradientTransform="matrix(3.55271e-15,61.6559,-61.6559,3.55271e-15,189.112,262.55)"><stop offset="0" style="stop-color:#ffd300;stop-opacity:1"/><stop offset="1" style="stop-color:#c3a200;stop-opacity:1"/></linearGradient><linearGradient id="_Linear64" x1="0" y1="0" x2="1" y2="0" gradientUnits="userSpaceOnUse" gradientTransform="matrix(0,61.6559,-61.6559,0,189.112,262.55)"><stop offset="0" style="stop-color:#ffd300;stop-opacity:1"/><stop offset="1" style="stop-color:#c3a200;stop-opacity:1"/></linearGradient><linearGradient id="_Linear65" x1="0" y1="0" x2="1" y2="0" gradientUnits="userSpaceOnUse" gradientTransform="matrix(3.55271e-15,61.6559,-61.6559,3.55271e-15,189.112,262.55)"><stop offset="0" style="stop-color:#ffd300;stop-opacity:1"/><stop offset="1" style="stop-color:#c3a200;stop-opacity:1"/></linearGradient><linearGradient id="_Linear66" x1="0" y1="0" x2="1" y2="0" gradientUnits="userSpaceOnUse" gradientTransform="matrix(3.9968e-15,61.6559,-61.6559,3.9968e-15,189.112,262.55)"><stop offset="0" style="stop-color:#ffd300;stop-opacity:1"/><stop offset="1" style="stop-color:#c3a200;stop-opacity:1"/></linearGradient><linearGradient id="_Linear67" x1="0" y1="0" x2="1" y2="0" gradientUnits="userSpaceOnUse" gradientTransform="matrix(5.32907e-15,61.6559,-61.6559,5.32907e-15,189.112,262.55)"><stop offset="0" style="stop-color:#ffd300;stop-opacity:1"/><stop offset="1" style="stop-color:#c3a200;stop-opacity:1"/></linearGradient><linearGradient id="_Linear68" x1="0" y1="0" x2="1" y2="0" gradientUnits="userSpaceOnUse" gradientTransform="matrix(7.10543e-15,61.6559,-61.6559,7.10543e-15,189.112,262.55)"><stop offset="0" style="stop-color:#ffd300;stop-opacity:1"/><stop offset="1" style="stop-color:#c3a200;stop-opacity:1"/></linearGradient><linearGradient id="_Linear69" x1="0" y1="0" x2="1" y2="0" gradientUnits="userSpaceOnUse" gradientTransform="matrix(7.10543e-15,61.6559,-61.6559,7.10543e-15,189.112,262.55)"><stop offset="0" style="stop-color:#ffd300;stop-opacity:1"/><stop offset="1" style="stop-color:#c3a200;stop-opacity:1"/></linearGradient><linearGradient id="_Linear70" x1="0" y1="0" x2="1" y2="0" gradientUnits="userSpaceOnUse" gradientTransform="matrix(7.10543e-15,61.6559,-61.6559,7.10543e-15,189.112,262.55)"><stop offset="0" style="stop-color:#ffd300;stop-opacity:1"/><stop offset="1" style="stop-color:#c3a200;stop-opacity:1"/></linearGradient><linearGradient id="_Linear71" x1="0" y1="0" x2="1" y2="0" gradientUnits="userSpaceOnUse" gradientTransform="matrix(7.10543e-15,61.6559,-61.6559,7.10543e-15,189.112,262.55)"><stop offset="0" style="stop-color:#ffd300;stop-opacity:1"/><stop offset="1" style="stop-color:#c3a200;stop-opacity:1"/></linearGradient><linearGradient id="_Linear72" x1="0" y1="0" x2="1" y2="0" gradientUnits="userSpaceOnUse" gradientTransform="matrix(1.77636e-15,61.6559,-61.6559,1.77636e-15,189.112,262.55)"><stop offset="0" style="stop-color:#ffd300;stop-opacity:1"/><stop offset="1" style="stop-color:#c3a200;stop-opacity:1"/></linearGradient><linearGradient id="_Linear73" x1="0" y1="0" x2="1" y2="0" gradientUnits="userSpaceOnUse" gradientTransform="matrix(3.9968e-15,61.6559,-61.6559,3.9968e-15,189.112,262.55)"><stop offset="0" style="stop-color:#ffd300;stop-opacity:1"/><stop offset="1" style="stop-color:#c3a200;stop-opacity:1"/></linearGradient><linearGradient id="_Linear74" x1="0" y1="0" x2="1" y2="0" gradientUnits="userSpaceOnUse" gradientTransform="matrix(0,61.6559,-61.6559,0,189.112,262.55)"><stop offset="0" style="stop-color:#ffd300;stop-opacity:1"/><stop offset="1" style="stop-color:#c3a200;stop-opacity:1"/></linearGradient><linearGradient id="_Linear75" x1="0" y1="0" x2="1" y2="0" gradientUnits="userSpaceOnUse" gradientTransform="matrix(3.55271e-15,61.6559,-61.6559,3.55271e-15,189.112,262.55)"><stop offset="0" style="stop-color:#ffd300;stop-opacity:1"/><stop offset="1" style="stop-color:#c3a200;stop-opacity:1"/></linearGradient><linearGradient id="_Linear76" x1="0" y1="0" x2="1" y2="0" gradientUnits="userSpaceOnUse" gradientTransform="matrix(0,61.6559,-61.6559,0,189.112,262.55)"><stop offset="0" style="stop-color:#ffd300;stop-opacity:1"/><stop offset="1" style="stop-color:#c3a200;stop-opacity:1"/></linearGradient></defs></svg>